<?xml version="1.0" encoding="UTF-8"?>
<svg version="1.1" xmlns="http://www.w3.org/2000/svg" width="1470" height="980">
<path d="M0 0 C485.1 0 970.2 0 1470 0 C1470 323.4 1470 646.8 1470 980 C984.9 980 499.8 980 0 980 C0 656.6 0 333.2 0 0 Z " fill="#FCFCFC" transform="translate(0,0)"/>
<path d="M0 0 C6.49474043 0.59518769 12.62278663 1.69712232 18.9375 3.3125 C19.81486816 3.53542725 20.69223633 3.75835449 21.59619141 3.98803711 C30.23591235 6.2375127 37.64546974 8.92187196 45 14 C47.22602615 14.76939681 47.22602615 14.76939681 49 15 C49 15.66 49 16.32 49 17 C49.94875 17.309375 50.8975 17.61875 51.875 17.9375 C55 19 55 19 57 20 C57 20.66 57 21.32 57 22 C57.57363281 22.26167969 58.14726563 22.52335937 58.73828125 22.79296875 C69.83528771 28.71520536 77.40869176 40.69129477 82 52 C82.70572559 53.54286215 83.41366818 55.08471455 84.125 56.625 C86.34295273 61.66195373 87.03337609 65.6617572 87.015625 71.16015625 C87.01336914 72.06515869 87.01111328 72.97016113 87.00878906 73.90258789 C87.00443848 74.94080688 87.00443848 74.94080688 87 76 C65.30734821 76.8758991 47.33564502 74.11858401 30.0625 60 C29.02013783 59.02246135 27.99863782 58.02216594 27 57 C26.46632813 56.46503906 25.93265625 55.93007813 25.3828125 55.37890625 C21.37527687 51.08511808 18.04400546 46.34729581 14.75 41.5 C14.11324341 40.57489624 14.11324341 40.57489624 13.46362305 39.63110352 C10.55044547 35.2471618 8.71278724 30.97794964 7 26 C6.525625 24.80375 6.05125 23.6075 5.5625 22.375 C0 7.52194149 0 7.52194149 0 0 Z " fill="#050505" transform="translate(889,206)"/>
<path d="M0 0 C-2.91264151 23.85300101 -15.00265321 46.24916634 -33 62 C-36.19942437 64.31596397 -39.49580822 66.1871225 -43 68 C-43.94746094 68.53496094 -44.89492188 69.06992187 -45.87109375 69.62109375 C-59.13941753 76.81601055 -72.30636627 76.26134922 -87 76 C-87.47432101 59.02774007 -80.49463289 44.41961917 -69.50390625 31.625 C-52.69926538 14.00765418 -25.1284652 -0.6252376 0 0 Z " fill="#040404" transform="translate(581,206)"/>
<path d="M0 0 C-4.62786724 13.90974785 -18.43324207 25.45706237 -31 31.875 C-43.57318515 37.78453413 -54.7862799 40.16199618 -68.19921875 35.65625 C-68.79347656 35.4396875 -69.38773438 35.223125 -70 35 C-68.86568884 25.91216589 -63.75269257 17.18873144 -57 11 C-53.75806253 8.51908071 -50.41823932 6.22979811 -47 4 C-46.01 3.34 -45.02 2.68 -44 2 C-29.70303783 -3.20234746 -14.76521016 -3.64251881 0 0 Z " fill="#080808" transform="translate(1039,587)"/>
<path d="M0 0 C0 1.32 0 2.64 0 4 C-1.65 4.66 -3.3 5.32 -5 6 C-5 6.66 -5 7.32 -5 8 C-10.87157568 11.31687568 -16.82948792 13.75173408 -23.25 15.75 C-23.92289063 15.96035889 -24.59578125 16.17071777 -25.2890625 16.38745117 C-39.00421693 20.52944136 -52.09687404 20.57359759 -65 14 C-68.77230325 11.80816954 -72.41846782 9.49056446 -76 7 C-75.06421832 0.97672919 -69.70542473 -1.96112919 -65.11328125 -5.421875 C-43.66340406 -19.9916029 -20.16852653 -12.40324628 0 0 Z " fill="#070707" transform="translate(951,699)"/>
<path d="M0 0 C9.04677938 3.95191219 13.26384616 15.45884419 17 24 C20.8807134 35.00175845 20.79968754 50.29300471 16 61 C12.82931812 66.74398891 9.14190797 71.9204733 5 77 C2.55342148 76.61591348 1.26405685 76.25865415 -0.52734375 74.50390625 C-10.48477542 60.79519838 -13.53803814 47.74192334 -12 31 C-10.17564826 19.86961161 -5.39229483 9.80558512 0 0 Z " fill="#070707" transform="translate(461,251)"/>
<path d="M0 0 C-5.03478478 18.27016597 -14.36791774 35.86134956 -31 46 C-33.87470286 47.32345191 -36.80101458 48.34614211 -39.8125 49.3125 C-40.60060059 49.5717627 -41.38870117 49.83102539 -42.20068359 50.09814453 C-47.97777629 51.90341172 -52.92846471 52.58756793 -59 52 C-59.88891588 41.86635893 -56.45146991 30.25149744 -50.63671875 21.83203125 C-37.60042436 7.24009314 -19.44352839 -0.62721059 0 0 Z " fill="#070707" transform="translate(1055,522)"/>
<path d="M0 0 C8.43941397 7.60274793 13.22670614 22.11678676 14.1953125 33.24365234 C14.75762502 44.57659264 13.86039931 53.87096013 8.6875 64.125 C8.11386719 65.28257812 7.54023437 66.44015625 6.94921875 67.6328125 C4.90257536 71.16829668 2.69542805 73.94734655 0 77 C-2.84608835 76.6567218 -3.844887 76.17450213 -5.78125 73.99609375 C-15.29113735 59.83932963 -19.78776966 46.11801855 -16.61328125 28.90283203 C-13.9420264 18.51432192 -8.27757032 7.023393 0 0 Z " fill="#070707" transform="translate(1007,251)"/>
<path d="M0 0 C10.21247657 6.75989035 10.21247657 6.75989035 12.22314453 11.89697266 C10.73814453 12.39197266 10.73814453 12.39197266 9.22314453 12.89697266 C9.22314453 13.55697266 9.22314453 14.21697266 9.22314453 14.89697266 C7.93638141 15.65535478 6.6433125 16.40303535 5.34814453 17.14697266 C4.62884766 17.56462891 3.90955078 17.98228516 3.16845703 18.41259766 C-4.89239008 22.47509355 -11.62671874 24.6287943 -20.71435547 24.52197266 C-21.71072021 24.51286865 -22.70708496 24.50376465 -23.73364258 24.49438477 C-39.28892195 24.02008559 -53.68347095 18.76107096 -65.77685547 8.89697266 C-65.77685547 8.23697266 -65.77685547 7.57697266 -65.77685547 6.89697266 C-60.42446018 2.46827679 -54.23225551 -0.64285914 -47.77685547 -3.10302734 C-46.84486328 -3.47685547 -45.91287109 -3.85068359 -44.95263672 -4.23583984 C-29.45915836 -9.79560748 -14.04181439 -8.71680646 0 0 Z " fill="#080808" transform="translate(582.77685546875,693.10302734375)"/>
<path d="M0 0 C0.36881634 11.16010917 -0.28016244 21.10799935 -3 32 C-3.20496094 32.91394531 -3.40992188 33.82789063 -3.62109375 34.76953125 C-7.23849767 49.03693182 -17.28372075 58.92456512 -29.2890625 66.65234375 C-32.22496318 68.11183328 -34.75776408 68.62443308 -38 69 C-40.46821965 63.21245048 -41.52374891 58.52579684 -41.4375 52.25 C-41.42920166 51.46359131 -41.42090332 50.67718262 -41.41235352 49.86694336 C-41.03932395 36.89055911 -35.5789917 25.66575418 -26.6875 16.25 C-20.84681508 10.77764657 -14.21028259 6.4334679 -7 3 C-6.278125 2.443125 -5.55625 1.88625 -4.8125 1.3125 C-3 0 -3 0 0 0 Z " fill="#060606" transform="translate(1063,379)"/>
<path d="M0 0 C0.79059814 -0.00515625 1.58119629 -0.0103125 2.39575195 -0.015625 C12.4321832 0.10075147 19.46792626 2.22118914 27.4375 8.3125 C28.78908203 9.32376953 28.78908203 9.32376953 30.16796875 10.35546875 C38.61317398 16.93690455 45.77089399 24.59040415 50.4375 34.3125 C50.4375 35.6325 50.4375 36.9525 50.4375 38.3125 C27.89126475 38.98351891 8.47127851 38.88322986 -8.9375 22.5625 C-13.79210427 17.4495055 -19.5625 10.67311848 -19.5625 3.3125 C-13.11801946 0.52927961 -6.92515434 0.01080683 0 0 Z " fill="#070707" transform="translate(777.5625,735.6875)"/>
<path d="M0 0 C4.041788 3.37878176 7.11586545 6.51379321 9.6875 11.125 C9.62890625 13.1953125 9.62890625 13.1953125 8.6875 15.125 C6.359375 16.3203125 6.359375 16.3203125 3.4375 17.25 C2.48359375 17.56195312 1.5296875 17.87390625 0.546875 18.1953125 C-0.39671875 18.50210938 -1.3403125 18.80890625 -2.3125 19.125 C-3.44558594 19.66833984 -3.44558594 19.66833984 -4.6015625 20.22265625 C-8.54502894 21.53525099 -12.30716255 21.46586492 -16.4375 21.4375 C-17.28771729 21.43186035 -18.13793457 21.4262207 -19.01391602 21.42041016 C-37.75935876 21.0593365 -52.50314836 11.06822304 -66.3125 -0.875 C-65.9825 -1.865 -65.6525 -2.855 -65.3125 -3.875 C-62.82694533 -5.05047892 -60.45614243 -6.02579075 -57.875 -6.9375 C-57.14506836 -7.20062988 -56.41513672 -7.46375977 -55.66308594 -7.73486328 C-35.90269419 -14.69342532 -16.92654277 -12.92617816 0 0 Z " fill="#060606" transform="translate(535.3125,653.875)"/>
<path d="M0 0 C4.59611607 9.4011465 5.19943599 18.725342 5.3125 29.0625 C5.33014404 29.98426025 5.34778809 30.90602051 5.3659668 31.85571289 C5.35159884 46.52539574 -0.94393885 58.194244 -10.75390625 68.80859375 C-17.09982175 75 -17.09982175 75 -21 75 C-28.77531106 63.20297633 -29.57748148 48.74392793 -27.56640625 35.046875 C-25.05076098 25.35929695 -11.76835123 0 0 0 Z " fill="#060606" transform="translate(1042,310)"/>
<path d="M0 0 C-1.30804687 18.63966789 -8.39685769 36.07585283 -22.0625 49.125 C-30.12678141 55.60911816 -39.62027589 59.92226934 -50 60 C-50.5124512 42.57665926 -48.75058255 30.1823154 -36.375 16.8125 C-26.87705408 7.84835337 -13.35241216 0 0 0 Z " fill="#050505" transform="translate(1070,453)"/>
<path d="M0 0 C-1.44080349 10.23339913 -9.48012223 18.75878886 -17.39453125 24.83984375 C-29.74378563 33.39210923 -43.71819458 35.18956742 -58.375 35.125 C-59.27605469 35.12886719 -60.17710937 35.13273438 -61.10546875 35.13671875 C-61.96527344 35.13542969 -62.82507813 35.13414062 -63.7109375 35.1328125 C-64.48743652 35.13168457 -65.26393555 35.13055664 -66.06396484 35.12939453 C-68 35 -68 35 -70 34 C-68.36320736 22.44015195 -56.50745436 11.47791418 -47.6875 4.625 C-33.73915692 -4.87911239 -15.7286064 -5.93799073 0 0 Z " fill="#060606" transform="translate(712,739)"/>
<path d="M0 0 C8.08289927 5.70015535 14.61248091 15.64717663 18.3984375 24.69140625 C18.3984375 26.01140625 18.3984375 27.33140625 18.3984375 28.69140625 C12.46018316 30.3987394 7.12725994 31.02879052 0.9609375 31.00390625 C0.16623047 31.02001953 -0.62847656 31.03613281 -1.44726562 31.05273438 C-7.21503762 31.05742744 -12.33271817 30.11435683 -17.6015625 27.69140625 C-18.2615625 27.03140625 -18.9215625 26.37140625 -19.6015625 25.69140625 C-20.5915625 25.34078125 -21.5815625 24.99015625 -22.6015625 24.62890625 C-28.22090412 22.3226348 -32.28671069 17.838691 -36.6015625 13.69140625 C-37.23320312 13.11132812 -37.86484375 12.53125 -38.515625 11.93359375 C-43.600342 7.12749138 -47.83937374 1.58387331 -51.6015625 -4.30859375 C-51.6015625 -4.96859375 -51.6015625 -5.62859375 -51.6015625 -6.30859375 C-33.95969304 -10.90621995 -15.86849815 -9.28376944 0 0 Z " fill="#070707" transform="translate(482.6015625,593.30859375)"/>
<path d="M0 0 C11.32955922 4.79327505 20.22271091 17.1183121 25.22265625 27.9765625 C30.18446303 40.89222034 29.75281856 55.86088497 24.22265625 68.4050293 C23.19242851 70.62552917 22.094644 72.81071201 21 75 C14.50638147 73.88639504 9.1351546 67.78411687 5.21875 62.76953125 C-4.44511761 48.73833886 -7.35318549 32.37861212 -4.61035156 15.61914062 C-2.37546875 4.7509375 -2.37546875 4.7509375 0 0 Z " fill="#060606" transform="translate(428,310)"/>
<path d="M0 0 C1.54880859 0.00193359 1.54880859 0.00193359 3.12890625 0.00390625 C11.99612397 0.10556862 19.53609475 2.14852544 27.875 5 C28.89400391 5.34417969 28.89400391 5.34417969 29.93359375 5.6953125 C31.58167733 6.25241118 33.22848012 6.8132966 34.875 7.375 C34.65015796 10.72437111 33.70743199 11.52458861 31.14453125 13.8125 C30.00004383 14.67716489 28.84732796 15.53102375 27.6875 16.375 C27.12224609 16.80039062 26.55699219 17.22578125 25.97460938 17.6640625 C20.36040626 21.85702978 14.99926141 25.5553321 8.375 28 C7.2921875 28.40476562 6.209375 28.80953125 5.09375 29.2265625 C4.0315625 29.60554687 2.969375 29.98453125 1.875 30.375 C0.93785156 30.74625 0.00070312 31.1175 -0.96484375 31.5 C-5.08926016 32.64198922 -8.92528286 32.75810957 -13.1875 32.75 C-14.02297363 32.74911377 -14.85844727 32.74822754 -15.71923828 32.74731445 C-25.06789215 32.57046744 -33.15914645 30.42969616 -41.125 25.375 C-40.80360471 20.07197774 -37.80206624 16.88460971 -34.125 13.375 C-23.24577979 4.12374943 -14.34117224 -0.342745 0 0 Z " fill="#060606" transform="translate(966.125,642.625)"/>
<path d="M0 0 C5.64616074 -0.17624582 10.48836563 0.30168094 15.9375 1.75 C16.98671631 2.02505371 16.98671631 2.02505371 18.05712891 2.30566406 C32.31159066 6.1646616 44.35240843 14.35593969 52.3125 27.1015625 C56.45110281 34.98316637 57.28642513 42.20038352 57 51 C42.81715623 51.4937934 32.71228326 49.55165037 21.7421875 40.04296875 C17.3620231 35.82102321 13.21358917 31.18556435 10 26 C10 25.34 10 24.68 10 24 C9.34 24 8.68 24 8 24 C-0.75 7.125 -0.75 7.125 0 0 Z " fill="#070707" transform="translate(416,522)"/>
<path d="M0 0 C16.65592505 2.51906767 30.8407599 9.77254439 41.57421875 22.9296875 C44.18783018 26.7247945 46.22331382 30.75458508 48 35 C48.37253906 35.886875 48.74507813 36.77375 49.12890625 37.6875 C50.29852159 42.13518526 50.21456814 46.30013509 50.125 50.875 C50.11597656 51.75414062 50.10695313 52.63328125 50.09765625 53.5390625 C50.07424577 55.6928271 50.0383801 57.84645014 50 60 C36.60199545 59.28723655 26.99463898 54.54324868 17.875 44.75 C10.02576925 35.58999398 5.47396168 25.39379996 2.3125 13.875 C2.08755859 13.08996094 1.86261719 12.30492187 1.63085938 11.49609375 C0.54361383 7.57672226 -0.30532623 4.10952599 0 0 Z " fill="#050505" transform="translate(400,453)"/>
<path d="M0 0 C0.85142578 -0.01611328 1.70285156 -0.03222656 2.58007812 -0.04882812 C18.25418414 -0.06076575 31.12410245 8.91480832 42.1875 19.3125 C47.1875 24.58972111 47.1875 24.58972111 47.1875 28.3125 C37.09466939 31.46123824 27.45794067 32.73962937 16.875 32.8125 C15.80330566 32.83054687 14.73161133 32.84859375 13.62744141 32.8671875 C-0.11159064 32.76587032 -10.57558729 27.90613158 -20.625 18.75 C-23.09878003 15.99350225 -25.47440485 13.1850169 -27.8125 10.3125 C-26.80543255 7.63817644 -26.18404659 6.51698428 -23.640625 5.1171875 C-22.36445312 4.65699219 -22.36445312 4.65699219 -21.0625 4.1875 C-20.22203125 3.87554688 -19.3815625 3.56359375 -18.515625 3.2421875 C-17.17757812 2.78199219 -17.17757812 2.78199219 -15.8125 2.3125 C-14.91660156 1.95027344 -14.02070312 1.58804688 -13.09765625 1.21484375 C-8.68653219 0.00322703 -4.55327328 -0.01700251 0 0 Z " fill="#050505" transform="translate(845.8125,717.6875)"/>
<path d="M0 0 C0.99157104 0.30671631 0.99157104 0.30671631 2.00317383 0.61962891 C6.62198374 2.14978679 10.59042888 4.22839471 14.75 6.75 C11.10685057 15.0525458 3.74268813 21.72291483 -4.25 25.75 C-4.9821875 26.12898437 -5.714375 26.50796875 -6.46875 26.8984375 C-22.50579358 34.64235238 -43.75849104 31.64933423 -60.25 26.75 C-60.25 21.83251604 -56.54432832 19.07513283 -53.2890625 15.671875 C-38.92413102 1.42860092 -19.65244038 -6.10822171 0 0 Z " fill="#050505" transform="translate(637.25,719.25)"/>
<path d="M0 0 C14.45516633 4.48464756 27.4533531 14.90434803 35 28 C41.32428433 40.69484391 41.94724356 54.43135025 38 68 C29.5685506 67.63341524 22.04351605 62.70776516 16 57 C4.26367685 43.74409782 -0.20744171 27.90651209 -0.0625 10.625 C-0.05798828 9.60277344 -0.05347656 8.58054687 -0.04882812 7.52734375 C-0.037103 5.01816806 -0.02069176 2.5091151 0 0 Z " fill="#060606" transform="translate(408,380)"/>
<path d="M0 0 C3 1 3 1 3.94921875 2.87109375 C7.82507817 16.34431934 7.4497483 31.01479727 2 44 C-0.43366054 48.27437412 -2.19034403 50.57152614 -6.75 52.4375 C-11.39783003 54.54139939 -14.74102411 57.12200883 -18.40625 60.64453125 C-20 62 -20 62 -22 62 C-27.28961417 52.60148911 -27.54562861 41.40935715 -25.375 31.00390625 C-21.18635977 19.31685203 -10.57656226 6.4683108 0 0 Z " fill="#090909" transform="translate(893,636)"/>
<path d="M0 0 C3 1 3 1 4.04321289 2.56298828 C4.50328735 3.55661377 4.50328735 3.55661377 4.97265625 4.5703125 C5.48602539 5.66859375 5.48602539 5.66859375 6.00976562 6.7890625 C6.35716797 7.55992187 6.70457031 8.33078125 7.0625 9.125 C7.41376953 9.87265625 7.76503906 10.6203125 8.12695312 11.390625 C11.39709379 18.48726296 13.37710003 24.9861962 13.3125 32.875 C13.30621582 33.92880859 13.30621582 33.92880859 13.29980469 35.00390625 C13.17963528 40.53681257 12.32836035 45.01209012 10 50 C9.7215625 50.67160156 9.443125 51.34320312 9.15625 52.03515625 C6.70790295 57.51227744 3.10126362 61.66832831 -1 66 C-1.99 65.67 -2.98 65.34 -4 65 C-4.65085696 63.11594038 -5.29487998 61.22927191 -5.90625 59.33203125 C-7.22564579 56.51889094 -8.98593254 54.93218747 -11.1875 52.75 C-16.45053493 46.46737343 -16.0552309 39.7492144 -15.58984375 31.9296875 C-14.36025545 19.40370614 -7.91722862 9.43977259 0 0 Z " fill="#070707" transform="translate(509,551)"/>
<path d="M0 0 C0.99 0 1.98 0 3 0 C3 0.66 3 1.32 3 2 C3.680625 2.20625 4.36125 2.4125 5.0625 2.625 C8.91639375 4.42895027 12.07787764 6.9010345 15 10 C15 10.66 15 11.32 15 12 C15.99 12.33 16.98 12.66 18 13 C23.86491125 21.13739426 29.84743627 31.68511169 29 42 C27.94140625 44.89453125 27.94140625 44.89453125 26.5625 47.8125 C24.25327973 53.0376001 23.28428636 57.31427272 23 63 C15.40224639 62.17238755 9.99658563 55.41425154 5.125 49.9375 C-4.83586662 36.16806673 -3.99360266 21.00958204 -1.53515625 4.765625 C-1 2 -1 2 0 0 Z " fill="#070707" transform="translate(968,508)"/>
<path d="M0 0 C0.99 0 1.98 0 3 0 C7.90713973 14.0508901 8.3629669 29.49319978 2.26855469 43.26391602 C-1.09917383 49.99855005 -5.87841092 55.59390049 -12 60 C-14.8359375 60.78125 -14.8359375 60.78125 -17 61 C-17 61.66 -17 62.32 -17 63 C-17.99 63 -18.98 63 -20 63 C-20.09796875 62.07058594 -20.1959375 61.14117188 -20.296875 60.18359375 C-21.01228325 52.28337374 -21.01228325 52.28337374 -24.1875 45.1875 C-26.72108187 40.7318905 -26.29382242 37.85183407 -25 33 C-21.10560468 21.42499169 -15.63633385 12.52960499 -6 5 C-5.30132812 4.44054687 -4.60265625 3.88109375 -3.8828125 3.3046875 C-2 2 -2 2 0 2 C0 1.34 0 0.68 0 0 Z " fill="#080808" transform="translate(499,508)"/>
<path d="M0 0 C1.83203125 0.6015625 1.83203125 0.6015625 4 2 C5.44921875 4.8984375 5.44921875 4.8984375 6.6875 8.375 C7.10386719 9.51710938 7.52023437 10.65921875 7.94921875 11.8359375 C11.35267124 22.0842517 11.89738815 35.51868345 7.60546875 45.60546875 C4.96742504 49.54006923 1.46788458 52.1756768 -2.34375 54.9296875 C-5.63569124 57.49546523 -8.12773135 60.2554627 -10 64 C-13 63 -13 63 -14.3515625 60.890625 C-14.98191406 59.58351563 -14.98191406 59.58351563 -15.625 58.25 C-16.05039062 57.38890625 -16.47578125 56.5278125 -16.9140625 55.640625 C-20.84931053 46.07146071 -20.74405106 32.06115052 -17 22.5 C-12.77308947 13.95038493 -6.98447245 6.46063702 0 0 Z " fill="#090909" transform="translate(932,597)"/>
<path d="M0 0 C4.47792066 1.43786443 7.55246849 3.90414231 10.9375 7.0625 C11.46529053 7.55057129 11.99308105 8.03864258 12.53686523 8.54150391 C16.80226185 12.59405901 20.05937364 16.89806522 23 22 C23.5775 22.845625 24.155 23.69125 24.75 24.5625 C29.24886218 33.33528125 29.54805659 45.00296337 27.1015625 54.48046875 C26.16483181 57.04817381 25.17144474 59.53159859 24 62 C22 62 22 62 19.6875 59.75 C18.800625 58.8425 17.91375 57.935 17 57 C11.57473749 52.21148846 11.57473749 52.21148846 4.9765625 49.6875 C3 49 3 49 1.83984375 47.13671875 C0.84506124 44.43659479 -0.11190287 41.73738581 -1 39 C-1.30292969 38.08605469 -1.60585938 37.17210937 -1.91796875 36.23046875 C-5.50117604 23.9331705 -5.54006505 11.6737085 0 0 Z " fill="#080808" transform="translate(575,637)"/>
<path d="M0 0 C15.56047072 -1.19900887 28.90006607 3.21628619 41 13 C44.49291143 16.10316566 46.51202952 17.99687129 47.0625 22.6875 C47.79941609 27.42076872 49.22678683 31.47278563 51.09765625 35.87109375 C52 38 52 38 53 41 C40.17224445 41.54138241 29.31360378 41.26952575 18.8984375 32.74609375 C10.81911073 25.31510802 0.38695631 13.70651698 -0.125 2.1875 C-0.08375 1.465625 -0.0425 0.74375 0 0 Z " fill="#080808" transform="translate(963,346)"/>
<path d="M0 0 C-1.8383265 13.14266257 -8.71512479 24.34830867 -19.19140625 32.62890625 C-30.43079019 40.98833131 -39.41900788 41.29667216 -53 41 C-51.97394163 38.34640077 -50.96720792 35.94534654 -49.5 33.5 C-47.95700469 29.8996776 -47.85154318 27.61029573 -47.625 23.75 C-46.9403406 18.70998627 -45.72323137 16.07506177 -41.77368164 12.77441406 C-35.6697176 8.22844569 -29.16823947 4.59735259 -22 2 C-21.3503125 1.75636719 -20.700625 1.51273437 -20.03125 1.26171875 C-13.56931006 -0.75079221 -6.687853 -0.16907494 0 0 Z " fill="#080808" transform="translate(507,346)"/>
<path d="M0 0 C-1.22489178 15.92359311 -8.65735994 28.07161288 -20 39 C-24.10220116 42.14315413 -27.79709836 42.45517791 -32.8125 42.5625 C-38.45960622 42.78794748 -43.59238248 43.31011953 -49 45 C-48.96258679 33.40190485 -46.30023286 24.17582044 -38.1875 15.625 C-36.81727293 14.38770541 -35.42175557 13.1777229 -34 12 C-33.3915625 11.46890625 -32.783125 10.9378125 -32.15625 10.390625 C-23.95205472 4.07469689 -10.39838779 -0.70554489 0 0 Z " fill="#060606" transform="translate(807,688)"/>
<path d="M0 0 C0.77949773 14.94636932 1.65476781 31.87584478 -8.4140625 44.19140625 C-10.82219336 46.69047861 -13.26345551 48.87107641 -16 51 C-16.99 51.804375 -17.98 52.60875 -19 53.4375 C-23.15929155 55.60379768 -27.47468113 56.81948203 -32 58 C-32.06058594 56.73542969 -32.12117188 55.47085938 -32.18359375 54.16796875 C-32.26800904 52.50780129 -32.35265655 50.84764563 -32.4375 49.1875 C-32.47681641 48.35412109 -32.51613281 47.52074219 -32.55664062 46.66210938 C-32.59853516 45.85966797 -32.64042969 45.05722656 -32.68359375 44.23046875 C-32.73858032 43.12288208 -32.73858032 43.12288208 -32.79467773 41.99291992 C-32.94842141 39.792505 -32.94842141 39.792505 -34 37 C-35.04403848 29.84087898 -31.90832913 24.85846449 -28 19 C-21.41096947 10.37778291 -11.57670962 -0.24765562 0 0 Z " fill="#060606" transform="translate(488,454)"/>
<path d="M0 0 C1.00675781 -0.00773437 2.01351562 -0.01546875 3.05078125 -0.0234375 C8.59347516 -0.00890881 13.26622337 0.39759591 18.5 2.25 C13.65758657 15.94989328 0.43868931 25.62103589 -12 32.0625 C-21.26503883 35.27315702 -32.68429596 34.02815888 -41.5 30.25 C-40.22829165 26.79216445 -38.74649305 23.9438645 -36.625 20.9375 C-34.60054971 18.02886259 -33.09358816 15.35672669 -31.8125 12.0625 C-28.79953005 5.72007166 -21.5932637 3.38252743 -15.36328125 1.1015625 C-10.20021169 -0.03650541 -5.2699331 -0.04048604 0 0 Z " fill="#070707" transform="translate(512.5,301.75)"/>
<path d="M0 0 C12.09935109 -1.29635904 24.65526772 4.60934218 34 12 C34.63292969 12.47179687 35.26585937 12.94359375 35.91796875 13.4296875 C40.43567927 16.99376616 43.29627233 20.94908017 46 26 C46.598125 27.093125 47.19625 28.18625 47.8125 29.3125 C49.40871298 34.26916136 49.2519956 38.83875681 49 44 C48.35675781 43.86722656 47.71351563 43.73445312 47.05078125 43.59765625 C41.733908 42.55855263 36.60284769 41.88020604 31.1875 41.625 C21.53063029 40.94092422 16.49309425 35.06143314 10.36328125 28.15625 C6.09261366 22.90666365 4.09534222 17.37174521 2 11 C1.45472656 9.700625 1.45472656 9.700625 0.8984375 8.375 C-0.19661658 5.48024835 -0.14273531 3.06880925 0 0 Z " fill="#070707" transform="translate(663,689)"/>
<path d="M0 0 C0.76957031 0.38542969 1.53914062 0.77085937 2.33203125 1.16796875 C3.07066406 1.46058594 3.80929687 1.75320313 4.5703125 2.0546875 C10.86817947 5.05536611 12.99528466 10.72015118 15.69140625 16.79296875 C17.26006285 20.01991947 19.06813917 22.41192621 21.33203125 25.16796875 C21.33203125 25.82796875 21.33203125 26.48796875 21.33203125 27.16796875 C11.48290869 31.24346774 0.82894975 31.78983364 -9.30859375 28.1953125 C-21.9414279 22.69459167 -31.76005276 13.06239364 -38.66796875 1.16796875 C-38.66796875 0.50796875 -38.66796875 -0.15203125 -38.66796875 -0.83203125 C-27.95812475 -5.66889063 -10.74357685 -4.60888436 0 0 Z " fill="#070707" transform="translate(977.66796875,304.83203125)"/>
<path d="M0 0 C1.58467728 0.28427417 3.1677057 0.57774818 4.75 0.875 C6.07257812 1.11863281 6.07257812 1.11863281 7.421875 1.3671875 C9.86947744 1.96796264 11.80599857 2.77997117 14 4 C14 4.66 14 5.32 14 6 C15.2065625 6.2475 15.2065625 6.2475 16.4375 6.5 C21.47436517 8.62078534 25.27356318 12.02513406 29 16 C29 16.66 29 17.32 29 18 C29.598125 18.2475 30.19625 18.495 30.8125 18.75 C35.26354194 21.29345254 37.38085252 26.02901225 39.21484375 30.65234375 C40.92113485 37.9274257 40.2743362 45.57768164 40 53 C35.17927869 51.41432955 30.4219982 49.69856824 25.671875 47.9140625 C22.87424251 46.87687933 22.87424251 46.87687933 19.3125 46.375 C10.50221986 42.71790258 6.19978827 32.40239795 2.45532227 24.12939453 C-0.81525768 16.10381093 -0.77624203 8.51710003 0 0 Z " fill="#070707" transform="translate(614,667)"/>
<path d="M0 0 C7.12413607 2.49344762 11.25218683 12.5275542 14.47265625 18.92578125 C16.91372699 25.11157701 17.44249771 31.22789307 17.625 37.8125 C17.66052979 38.61324951 17.69605957 39.41399902 17.73266602 40.23901367 C17.7181805 45.7997144 16.38464143 48.43285424 12.52783203 52.38989258 C10.38248351 54.65077042 9.05343883 57.18265368 7.625 59.9375 C7.12226562 60.89527344 6.61953125 61.85304688 6.1015625 62.83984375 C5.73804688 63.55269531 5.37453125 64.26554688 5 65 C1.93782519 64.69172737 1.04837139 64.05449905 -1.03515625 61.70703125 C-1.70417969 60.75183594 -2.37320313 59.79664063 -3.0625 58.8125 C-3.73410156 57.87019531 -4.40570312 56.92789063 -5.09765625 55.95703125 C-11.75101952 45.61494501 -12.46478737 35.04041049 -9.92163086 23.10302734 C-7.90164416 14.58913483 -4.55069291 7.46518163 0 0 Z " fill="#070707" transform="translate(959,551)"/>
<path d="M0 0 C0.97006795 13.44621967 -3.11395804 24.23251963 -11 35 C-11.50015625 35.73089844 -12.0003125 36.46179688 -12.515625 37.21484375 C-17.885847 44.28021159 -26.50345515 48.84716662 -35.12890625 50.65625 C-37.44013752 50.89296216 -39.67847587 51.03744394 -42 51 C-41 47 -41 47 -40.47143555 45.11230469 C-39.99629041 42.9833789 -39.88964649 41.13018741 -39.89453125 38.953125 C-39.68113545 23.8373215 -39.68113545 23.8373215 -34.52734375 18.453125 C-34.02332031 17.97359375 -33.51929688 17.4940625 -33 17 C-32.4225 16.154375 -31.845 15.30875 -31.25 14.4375 C-23.71627259 6.27596197 -11.43338591 -1.2992484 0 0 Z " fill="#070707" transform="translate(493,397)"/>
<path d="M0 0 C8.29525332 2.54403845 15.69921566 7.03083589 22 13 C22 13.66 22 14.32 22 15 C22.99 15.33 23.98 15.66 25 16 C26.48626398 18.12529965 27.82172282 20.2056975 29.125 22.4375 C29.48464844 23.03626953 29.84429688 23.63503906 30.21484375 24.25195312 C34.14017659 30.81622696 34.14017659 30.81622696 34.125 35.4375 C34.12886719 36.61119141 34.12886719 36.61119141 34.1328125 37.80859375 C34 40 34 40 33 43 C32.77202438 45.73289293 32.58331813 48.45042204 32.4375 51.1875 C32.37272461 52.31188477 32.37272461 52.31188477 32.30664062 53.45898438 C32.20077315 55.30578375 32.0999024 57.15286834 32 59 C23.42857143 57 23.42857143 57 20 55 C20 54.34 20 53.68 20 53 C18.88625 52.62488281 18.88625 52.62488281 17.75 52.2421875 C9.88006376 48.68730153 5.98344249 40.6705614 3.0078125 32.9921875 C2.67523437 32.00476563 2.34265625 31.01734375 2 30 C1.443125 28.45505859 1.443125 28.45505859 0.875 26.87890625 C-0.32261356 21.56984255 -0.21250016 16.48414437 -0.125 11.0625 C-0.11597656 9.99708984 -0.10695313 8.93167969 -0.09765625 7.83398438 C-0.07423414 5.22241966 -0.04143452 2.61133063 0 0 Z " fill="#070707" transform="translate(982,453)"/>
<path d="M0 0 C0.83985636 14.04426467 -2.33635617 26.17822338 -10 38 C-10.47824219 38.77601563 -10.95648437 39.55203125 -11.44921875 40.3515625 C-15.8012938 46.38088562 -20.53477798 47.18597982 -27.671875 48.34765625 C-31.85244269 49.16708677 -34.48007205 50.68004749 -38 53 C-38.66 53 -39.32 53 -40 53 C-40.77140482 33.32917706 -40.77140482 33.32917706 -36 25 C-35.443125 23.989375 -34.88625 22.97875 -34.3125 21.9375 C-26.24638405 11.69135271 -13.85112682 0 0 0 Z " fill="#070707" transform="translate(856,667)"/>
<path d="M0 0 C10.54341264 0.66942302 17.94841508 4.27298266 26 11 C26.85207031 11.70640625 27.70414063 12.4128125 28.58203125 13.140625 C38.76237564 21.90496248 38.76237564 21.90496248 40 27 C40.20998507 30.788302 40.18343129 34.51628233 40.07421875 38.30859375 C39.9869223 42.65044371 40.39752072 46.70733511 41 51 C29.25172056 50.24204649 20.32937845 46.55569957 12.28417969 37.63525391 C8.15982701 32.38336907 5.5668736 26.11637849 3 20 C2.6184375 19.12859375 2.236875 18.2571875 1.84375 17.359375 C-0.38014504 11.63490444 -0.3067613 6.07841825 0 0 Z " fill="#070707" transform="translate(977,397)"/>
<path d="M0 0 C8.54012189 3.61386004 14.42146781 13.43713384 18.19140625 21.5703125 C22.19165757 31.80092041 23.14756729 44.78551665 18.93359375 55.12890625 C17.41210276 58.17825431 15.79042762 61.09827248 14 64 C13.34 64 12.68 64 12 64 C11.401875 63.0925 10.80375 62.185 10.1875 61.25 C8.05230482 58.07771001 5.98205348 56.31937493 3 54 C3 53.34 3 52.68 3 52 C1.6078125 51.7215625 1.6078125 51.7215625 0.1875 51.4375 C-3 50 -3 50 -4.8125 46.625 C-8.89426526 34.16487448 -8.96957656 18.47780676 -4.16796875 6.20703125 C-2.96911586 3.94164034 -1.60208983 1.99687415 0 0 Z " fill="#060606" transform="translate(536,597)"/>
<path d="M0 0 C0.68707555 2.49064888 1 4.37886292 1 7 C1.66 7.33 2.32 7.66 3 8 C3.33 8.66 3.66 9.32 4 10 C3.03630697 12.30747616 2.02133033 14.47277032 0.875 16.6875 C0.3943811 17.63326904 0.3943811 17.63326904 -0.09594727 18.59814453 C-2.39049529 23.0314839 -4.91032963 27.06769226 -8 31 C-7.01 31.33 -6.02 31.66 -5 32 C-6.98 32.495 -6.98 32.495 -9 33 C-9 31.35 -9 29.7 -9 28 C-10.0725 28.20625 -11.145 28.4125 -12.25 28.625 C-15.9168789 28.99168789 -17.0867936 29.05003413 -20 27 C-20.66 26.34 -21.32 25.68 -22 25 C-21.67 24.34 -21.34 23.68 -21 23 C-21.66 22.67 -22.32 22.34 -23 22 C-22.34 21.34 -21.68 20.68 -21 20 C-19.19335938 22.34375 -19.19335938 22.34375 -17.38671875 24.6875 C-15.95508863 26.34370205 -15.95508863 26.34370205 -13 26 C-11.17761813 23.9480524 -11.17761813 23.9480524 -9.5 21.3125 C-8.9121875 20.44238281 -8.324375 19.57226562 -7.71875 18.67578125 C-7.1515625 17.79277344 -6.584375 16.90976562 -6 16 C-5.46761719 15.1853125 -4.93523437 14.370625 -4.38671875 13.53125 C-2.87784044 10.77701578 -2.08162479 8.22737418 -1.3125 5.1875 C-1.06113281 4.21167969 -0.80976563 3.23585938 -0.55078125 2.23046875 C-0.36902344 1.49441406 -0.18726563 0.75835937 0 0 Z " fill="#E8E8E8" transform="translate(479,301)"/>
<path d="M0 0 C2 3 2 3 3 6 C4.36125 6.680625 4.36125 6.680625 5.75 7.375 C11.02366153 10.01183076 14.55548676 14.27974111 18 19 C18 19.66 18 20.32 18 21 C18.66 21 19.32 21 20 21 C20.33 20.01 20.66 19.02 21 18 C21.33 18.66 21.66 19.32 22 20 C22.66 20.33 23.32 20.66 24 21 C21.33333333 22.33333333 18.66666667 23.66666667 16 25 C15.67 25.99 15.34 26.98 15 28 C14.443125 26.948125 13.88625 25.89625 13.3125 24.8125 C11.29545772 21.30030751 9.01701252 18.73636019 6 16 C5.43925781 15.48179687 4.87851562 14.96359375 4.30078125 14.4296875 C1.0450883 11.50591986 -1.73232169 9.29323585 -6 8 C-5.38125 7.896875 -4.7625 7.79375 -4.125 7.6875 C-1.63473516 7.12474627 -1.63473516 7.12474627 0 4 C0 2.68 0 1.36 0 0 Z " fill="#E8E8E8" transform="translate(530,640)"/>
<path d="M0 0 C0.66 0.99 1.32 1.98 2 3 C1.67 3.66 1.34 4.32 1 5 C0.34 5 -0.32 5 -1 5 C-1.33 5.66 -1.66 6.32 -2 7 C-2.66 7.66 -3.32 8.32 -4 9 C-3.67 9.66 -3.34 10.32 -3 11 C-0.64400765 11.46751788 -0.64400765 11.46751788 2.0625 11.625 C3.44115234 11.73714844 3.44115234 11.73714844 4.84765625 11.8515625 C5.55792969 11.90054688 6.26820313 11.94953125 7 12 C7 12.33 7 12.66 7 13 C5.98421875 13.02578125 4.9684375 13.0515625 3.921875 13.078125 C-5.06210772 13.41102733 -12.53916392 14.76655946 -21 18 C-22.32736962 18.35634084 -23.65895163 18.6992041 -25 19 C-25 18.34 -25 17.68 -25 17 C-26.32 16.67 -27.64 16.34 -29 16 C-23.53785692 11.04993284 -18.0490995 9.26408324 -10.875 8.25 C-5.95913831 7.38517248 -3.87695793 5.40803698 -0.9609375 1.4609375 C-0.64382813 0.97882812 -0.32671875 0.49671875 0 0 Z " fill="#F0F0F0" transform="translate(845,705)"/>
<path d="M0 0 C0.33 0 0.66 0 1 0 C1 4.62 1 9.24 1 14 C0.67 13.01 0.34 12.02 0 11 C-8.66170574 9.14520646 -17.17358581 8.45263663 -26 8 C-25.34 7.01 -24.68 6.02 -24 5 C-24 4.01 -24 3.02 -24 2 C-6.94875549 1.52562225 -6.94875549 1.52562225 0 5 C0 3.35 0 1.7 0 0 Z " fill="#E7E7E7" transform="translate(712,728)"/>
<path d="M0 0 C0.33 0.66 0.66 1.32 1 2 C3.02463255 2.65213292 3.02463255 2.65213292 5 3 C4.01 3.495 4.01 3.495 3 4 C3 4.99 3 5.98 3 7 C0.734375 9.05078125 0.734375 9.05078125 -2.25 11.3125 C-6.4564147 14.63335371 -9.43885411 17.32312491 -12 22 C-12.66 22.99 -13.32 23.98 -14 25 C-14 24.01 -14 23.02 -14 22 C-15.32 21.34 -16.64 20.68 -18 20 C-18 19.01 -18 18.02 -18 17 C-17.34 17.33 -16.68 17.66 -16 18 C-15.77054688 17.26910156 -15.54109375 16.53820312 -15.3046875 15.78515625 C-13.74410248 12.45372776 -11.91440756 10.81718746 -9.125 8.4375 C-5.96656336 5.71747323 -2.91088553 2.98535005 0 0 Z " fill="#E5E5E5" transform="translate(938,643)"/>
<path d="M0 0 C0.66 0.66 1.32 1.32 2 2 C2.66 1.67 3.32 1.34 4 1 C5.74675802 6.99674407 6.25682842 12.27364221 6.125 18.5 C6.11597656 19.32242187 6.10695313 20.14484375 6.09765625 20.9921875 C6.07436865 22.99492083 6.03850959 24.99750154 6 27 C6.66 27 7.32 27 8 27 C8 27.66 8 28.32 8 29 C7.01 29 6.02 29 5 29 C4.67 28.34 4.34 27.68 4 27 C3.34 27.66 2.68 28.32 2 29 C1.34 28.67 0.68 28.34 0 28 C-0.04898437 26.70964844 -0.09796875 25.41929687 -0.1484375 24.08984375 C-0.22351803 22.37237653 -0.29906354 20.65492959 -0.375 18.9375 C-0.42140625 17.66616211 -0.42140625 17.66616211 -0.46875 16.36914062 C-0.70531783 11.26321829 -1.38044506 6.85208127 -3 2 C-2.34 2 -1.68 2 -1 2 C-0.67 1.34 -0.34 0.68 0 0 Z " fill="#E3E3E3" transform="translate(450,485)"/>
<path d="M0 0 C2 3 2 3 3.1875 6.4375 C4.55501441 10.34571223 6.57261527 13.5259827 8.8125 17 C12.61739232 23.36835791 12.61739232 23.36835791 11.8125 27.625 C10 31 10 31 7.125 32.5625 C4 33 4 33 0 32 C4.455 31.01 4.455 31.01 9 30 C8.54109375 29.38253906 8.0821875 28.76507813 7.609375 28.12890625 C-2.22675923 14.55256131 -2.22675923 14.55256131 -1.8125 8.0625 C-1 6 -1 6 0 4 C0 2.68 0 1.36 0 0 Z " fill="#D5D5D5" transform="translate(990,302)"/>
<path d="M0 0 C0.33 1.32 0.66 2.64 1 4 C1.99 3.505 2.98 3.01 4 2.5 C10.64328597 -0.06344187 18.0049088 0.77079191 25 1 C24.690625 1.928125 24.690625 1.928125 24.375 2.875 C24.25125 3.57625 24.1275 4.2775 24 5 C24.66 5.66 25.32 6.32 26 7 C25.01 7.06058594 24.02 7.12117187 23 7.18359375 C16.30533362 7.60460466 9.64481097 8.05074129 3 9 C2.67 8.01 2.34 7.02 2 6 C1.34 5.67 0.68 5.34 0 5 C0 3.35 0 1.7 0 0 Z " fill="#DBDBDB" transform="translate(757,729)"/>
<path d="M0 0 C0.33 0.66 0.66 1.32 1 2 C3.52733235 2.65555119 3.52733235 2.65555119 6 3 C5.47535156 3.2371875 4.95070313 3.474375 4.41015625 3.71875 C1.24592511 5.40086963 -1.63770938 7.44047364 -4.5625 9.5 C-10.91903409 13.94602273 -10.91903409 13.94602273 -14 16 C-14.66 15.34 -15.32 14.68 -16 14 C-16.99 14 -17.98 14 -19 14 C-19 13.34 -19 12.68 -19 12 C-16.95162033 10.24762896 -14.90318009 8.6137324 -12.75 7 C-12.16347656 6.54882812 -11.57695313 6.09765625 -10.97265625 5.6328125 C-3.5566753 0 -3.5566753 0 0 0 Z " fill="#E4E4E4" transform="translate(890,686)"/>
<path d="M0 0 C0.33 0 0.66 0 1 0 C1.04487549 0.55872803 1.08975098 1.11745605 1.13598633 1.69311523 C1.35002212 4.27567165 1.58116977 6.85643746 1.8125 9.4375 C1.88275391 10.31599609 1.95300781 11.19449219 2.02539062 12.09960938 C2.57815997 18.09162903 3.83958 23.383938 6 29 C4.35 29.99 2.7 30.98 1 32 C-4.74031891 18.3667426 -4.74031891 18.3667426 -4 12 C-3.01 12 -2.02 12 -1 12 C-0.67 8.04 -0.34 4.08 0 0 Z " fill="#DDDDDD" transform="translate(1013,352)"/>
<path d="M0 0 C6.55881936 2.31487742 11.88964486 6.37634535 17 11 C17 11.66 17 12.32 17 13 C16.34 13 15.68 13 15 13 C14.67 13.99 14.34 14.98 14 16 C13.443125 15.62488281 12.88625 15.24976563 12.3125 14.86328125 C7.26551362 11.47873126 2.17435011 8.18638454 -3 5 C-2.01 3.35 -1.02 1.7 0 0 Z " fill="#E4E4E4" transform="translate(580,686)"/>
<path d="M0 0 C0.33 0 0.66 0 1 0 C0.979375 0.75023437 0.95875 1.50046875 0.9375 2.2734375 C1.11619348 11.14110163 3.88980622 15.70886654 10 22 C9 24 9 24 7 25 C7 26.65 7 28.3 7 30 C4.25319946 28.62659973 3.90822762 27.01261743 2.625 24.25 C0.77564427 20.41958367 -1.13428916 17.18412316 -4 14 C-3.34 14 -2.68 14 -2 14 C-0.64908472 11.29816945 -0.66141942 8.88191794 -0.4375 5.875 C-0.35371094 4.77929688 -0.26992188 3.68359375 -0.18359375 2.5546875 C-0.12300781 1.71164062 -0.06242187 0.86859375 0 0 Z " fill="#D3D3D3" transform="translate(493,586)"/>
<path d="M0 0 C0.33 0 0.66 0 1 0 C1.16821105 2.5832412 1.33462517 5.16657699 1.5 7.75 C1.54769531 8.47960937 1.59539063 9.20921875 1.64453125 9.9609375 C2.28798908 20.07241767 2.28798908 20.07241767 -0.3125 24 C-0.76625 24.6909375 -1.22 25.381875 -1.6875 26.09375 C-3.07282155 28.10576464 -4.48347024 30.08438346 -6 32 C-5.67 29.69 -5.34 27.38 -5 25 C-6.32 25.33 -7.64 25.66 -9 26 C-7.92726894 22.45998749 -6.56207433 20.54231363 -3.9375 18.0625 C0.64785282 13.06435386 -0.01785095 6.4352662 0 0 Z " fill="#D8D8D8" transform="translate(976,584)"/>
<path d="M0 0 C3.67230705 3.07999946 4.56802365 5.2482602 5 10 C4.01 10.66 3.02 11.32 2 12 C1.41651248 14.6556728 1.41651248 14.6556728 1.3125 17.625 C1.24675781 18.62789062 1.18101562 19.63078125 1.11328125 20.6640625 C1.07589844 21.43492187 1.03851563 22.20578125 1 23 C-1.10388569 23.05402274 -3.20816714 23.09280256 -5.3125 23.125 C-6.48425781 23.14820313 -7.65601563 23.17140625 -8.86328125 23.1953125 C-12 23 -12 23 -15 21 C-10.05 21.33 -5.1 21.66 0 22 C-0.5221374 15.12519084 -1.35420654 8.69289338 -3 2 C-2.01 2 -1.02 2 0 2 C0 1.34 0 0.68 0 0 Z " fill="#C8C8C8" transform="translate(473,551)"/>
<path d="M0 0 C0.66 0.33 1.32 0.66 2 1 C2.28883414 5.06534057 1.57875609 7.33058355 -0.5 10.8125 C-0.9640625 11.60269531 -1.428125 12.39289063 -1.90625 13.20703125 C-2.2671875 13.79871094 -2.628125 14.39039063 -3 15 C-3.66 14.34 -4.32 13.68 -5 13 C-6.32 14.65 -7.64 16.3 -9 18 C-9 17.34 -9 16.68 -9 16 C-9.66 15.67 -10.32 15.34 -11 15 C-10.34 15 -9.68 15 -9 15 C-8.70996094 14.11248047 -8.70996094 14.11248047 -8.4140625 13.20703125 C-7.05585281 9.0853355 -5.67949415 5.0049476 -4 1 C-3.01 1.33 -2.02 1.66 -1 2 C-0.67 1.34 -0.34 0.68 0 0 Z " fill="#E5E5E5" transform="translate(458,370)"/>
<path d="M0 0 C0.66 0.99 1.32 1.98 2 3 C1.67 3.66 1.34 4.32 1 5 C0.34 5 -0.32 5 -1 5 C-1.33 5.66 -1.66 6.32 -2 7 C-2.66 7.66 -3.32 8.32 -4 9 C-3.67 9.66 -3.34 10.32 -3 11 C-0.64400765 11.46751788 -0.64400765 11.46751788 2.0625 11.625 C3.44115234 11.73714844 3.44115234 11.73714844 4.84765625 11.8515625 C5.55792969 11.90054688 6.26820313 11.94953125 7 12 C7 12.33 7 12.66 7 13 C-2.405 13.495 -2.405 13.495 -12 14 C-12 12.68 -12 11.36 -12 10 C-13.32 9.67 -14.64 9.34 -16 9 C-15.34773437 8.93683594 -14.69546875 8.87367188 -14.0234375 8.80859375 C-8.94010051 8.09632677 -5.75988121 7.40268316 -2.375 3.375 C-1.55759111 2.26856255 -0.75595671 1.14930003 0 0 Z " fill="#D6D6D6" transform="translate(845,705)"/>
<path d="M0 0 C0.53109375 0.62390625 1.0621875 1.2478125 1.609375 1.890625 C4.45976173 4.40567212 6.56056821 4.94794961 10.25 5.75 C11.86648438 6.11351562 11.86648438 6.11351562 13.515625 6.484375 C14.33546875 6.65453125 15.1553125 6.8246875 16 7 C16 8.98 16 10.96 16 13 C16.639375 13.12375 17.27875 13.2475 17.9375 13.375 C18.618125 13.58125 19.29875 13.7875 20 14 C20.33 14.66 20.66 15.32 21 16 C20.21625 15.731875 19.4325 15.46375 18.625 15.1875 C14.10760831 13.70766479 9.55729662 12.35097726 5 11 C5.99 10.01 6.98 9.02 8 8 C6.68 7.34 5.36 6.68 4 6 C4 6.66 4 7.32 4 8 C3.01 7.67 2.02 7.34 1 7 C1.33 6.34 1.66 5.68 2 5 C1.10636395 2.39068734 1.10636395 2.39068734 0 0 Z " fill="#D1D1D1" transform="translate(627,708)"/>
<path d="M0 0 C0.7425 0.804375 1.485 1.60875 2.25 2.4375 C4.73378348 4.95358949 4.73378348 4.95358949 7 6.125 C9.3613326 6.18332966 9.3613326 6.18332966 11.75 3.5625 C12.4925 2.716875 13.235 1.87125 14 1 C14 1.66 14 2.32 14 3 C14.66 3 15.32 3 16 3 C16 6.76687864 15.76462683 7.91190305 14 11 C14.99 11.33 15.98 11.66 17 12 C15.68 12.33 14.36 12.66 13 13 C13 11.35 13 9.7 13 8 C11.9275 8.20625 10.855 8.4125 9.75 8.625 C6.0831211 8.99168789 4.9132064 9.05003413 2 7 C1.34 6.34 0.68 5.68 0 5 C0.33 4.34 0.66 3.68 1 3 C0.34 2.67 -0.32 2.34 -1 2 C-0.67 1.34 -0.34 0.68 0 0 Z " fill="#DDDDDD" transform="translate(457,321)"/>
<path d="M0 0 C0.33 0.66 0.66 1.32 1 2 C3.02463255 2.65213292 3.02463255 2.65213292 5 3 C4.01 3.495 4.01 3.495 3 4 C3 4.99 3 5.98 3 7 C1.46875 8.38671875 1.46875 8.38671875 -0.5 9.6875 C-1.1496875 10.12449219 -1.799375 10.56148437 -2.46875 11.01171875 C-2.9740625 11.33785156 -3.479375 11.66398438 -4 12 C-4 11.01 -4 10.02 -4 9 C-6.31 9.66 -8.62 10.32 -11 11 C-8.51017809 8.43904032 -6.04769994 6.03794313 -3.25 3.8125 C-0.92512612 2.19690923 -0.92512612 2.19690923 0 0 Z " fill="#DCDCDC" transform="translate(938,643)"/>
<path d="M0 0 C0.33 0 0.66 0 1 0 C1 4.62 1 9.24 1 14 C0.67 13.01 0.34 12.02 0 11 C-3.63 10.34 -7.26 9.68 -11 9 C-10.01 8.34 -9.02 7.68 -8 7 C-8 6.34 -8 5.68 -8 5 C-8.66 4.34 -9.32 3.68 -10 3 C-2.25 3.875 -2.25 3.875 0 5 C0 3.35 0 1.7 0 0 Z " fill="#DBDBDB" transform="translate(712,728)"/>
<path d="M0 0 C0.28875 0.639375 0.5775 1.27875 0.875 1.9375 C1.82823451 4.15206079 1.82823451 4.15206079 4 5 C2.7508258 8.45925163 1.32472205 11.14693203 -1 14 C-4.39914975 12.86695008 -5.05254451 11.87481525 -7 9 C-6.57847656 8.51789062 -6.15695312 8.03578125 -5.72265625 7.5390625 C-5.17480469 6.90742187 -4.62695312 6.27578125 -4.0625 5.625 C-3.51722656 4.99851562 -2.97195313 4.37203125 -2.41015625 3.7265625 C-0.93041376 2.04367666 -0.93041376 2.04367666 0 0 Z " fill="#E6E6E6" transform="translate(499,553)"/>
<path d="M0 0 C2.32718447 2.11562225 3.85813411 4.05017979 5 7 C4.67 7.66 4.34 8.32 4 9 C4 10.32 4 11.64 4 13 C3.01 13 2.02 13 1 13 C-0.65 10.03 -2.3 7.06 -4 4 C-2.68 2.68 -1.36 1.36 0 0 Z " fill="#EAEAEA" transform="translate(969,552)"/>
<path d="M0 0 C4.12751449 0.60698743 7.3321148 2.03810791 11 4 C10.01 4.495 10.01 4.495 9 5 C9.33 7.31 9.66 9.62 10 12 C9.67 11.34 9.34 10.68 9 10 C7.68596724 9.29605388 6.3479743 8.63654342 5 8 C2.25 6.6875 2.25 6.6875 0 5 C-0.3125 2.3125 -0.3125 2.3125 0 0 Z " fill="#EFEFEF" transform="translate(643,716)"/>
<path d="M0 0 C0.45375 0.61875 0.9075 1.2375 1.375 1.875 C2.97108919 4.05919833 2.97108919 4.05919833 5 6 C5.13525391 8.15478516 5.13525391 8.15478516 4.9765625 10.7890625 C4.89921875 12.20058594 4.89921875 12.20058594 4.8203125 13.640625 C4.75585938 14.62546875 4.69140625 15.6103125 4.625 16.625 C4.56828125 17.61757813 4.5115625 18.61015625 4.453125 19.6328125 C4.31140759 22.08924767 4.15997723 24.54469735 4 27 C3.67 27 3.34 27 3 27 C2.95101562 25.92878906 2.90203125 24.85757812 2.8515625 23.75390625 C2.77654706 22.35674361 2.7009987 20.9596095 2.625 19.5625 C2.5940625 18.85544922 2.563125 18.14839844 2.53125 17.41992188 C2.42719371 15.60760812 2.22080108 13.80182012 2 12 C1.34 11.67 0.68 11.34 0 11 C-0.66 11.99 -1.32 12.98 -2 14 C-1.33333333 9.33333333 -0.66666667 4.66666667 0 0 Z " fill="#CCCCCC" transform="translate(1016,486)"/>
<path d="M0 0 C0.33 1.32 0.66 2.64 1 4 C1.66 3.67 2.32 3.34 3 3 C9.47058824 2.64705882 9.47058824 2.64705882 13 5 C11 8 11 8 9.0546875 8.51171875 C8.33539062 8.56972656 7.61609375 8.62773438 6.875 8.6875 C5.59625 8.790625 4.3175 8.89375 3 9 C2.67 8.01 2.34 7.02 2 6 C1.34 5.67 0.68 5.34 0 5 C0 3.35 0 1.7 0 0 Z " fill="#F3F3F3" transform="translate(757,729)"/>
<path d="M0 0 C3.84160316 5.76240474 4.23538321 11.29157865 4 18 C3.01 18 2.02 18 1 18 C0.44191911 16.56879256 -0.09596462 15.12969645 -0.625 13.6875 C-0.92664063 12.88699219 -1.22828125 12.08648437 -1.5390625 11.26171875 C-1.76722656 10.14216797 -1.76722656 10.14216797 -2 9 C-1.34 8.01 -0.68 7.02 0 6 C0.16699232 2.87478167 0.16699232 2.87478167 0 0 Z " fill="#F0F0F0" transform="translate(990,302)"/>
<path d="M0 0 C2.475 0.99 2.475 0.99 5 2 C3.44499019 5.81684226 0.96404505 8.19195732 -2 11 C-2.73080266 9.02253397 -3.39421747 7.01927511 -4 5 C-3.67 4.34 -3.34 3.68 -3 3 C-2.34 3 -1.68 3 -1 3 C-0.67 2.01 -0.34 1.02 0 0 Z " fill="#0D0D0D" transform="translate(647,724)"/>
<path d="M0 0 C0.66 0.33 1.32 0.66 2 1 C1.071875 1.804375 1.071875 1.804375 0.125 2.625 C-2.37985539 5.42454426 -3.39371136 7.28648211 -4 11 C-2.25590249 13.8900216 -2.25590249 13.8900216 0 16 C-3.11198065 14.50163895 -6.0534615 12.80066242 -9 11 C-8.46324097 7.14896699 -6.88399077 5.68202413 -3.9375 3.25 C-3.20402344 2.63640625 -2.47054687 2.0228125 -1.71484375 1.390625 C-1.14894531 0.93171875 -0.58304688 0.4728125 0 0 Z " fill="#2F2F2F" transform="translate(884,695)"/>
<path d="M0 0 C1.32 0.33 2.64 0.66 4 1 C5.13643966 4.40931897 4.86747764 5.00335456 3.5625 8.1875 C3.27503906 8.90292969 2.98757813 9.61835937 2.69140625 10.35546875 C2.46324219 10.89816406 2.23507812 11.44085937 2 12 C-0.475 11.01 -0.475 11.01 -3 10 C-2.01 6.7 -1.02 3.4 0 0 Z " fill="#F2F2F2" transform="translate(997,546)"/>
<path d="M0 0 C2.14336161 3.4766338 2.21277626 6.21229195 2.125 10.25 C2.10695313 11.32765625 2.08890625 12.4053125 2.0703125 13.515625 C2.04710937 14.33546875 2.02390625 15.1553125 2 16 C1.67 16 1.34 16 1 16 C0.87625 15.236875 0.7525 14.47375 0.625 13.6875 C0.11897208 10.79732864 0.11897208 10.79732864 -2 8 C-2.33 11.3 -2.66 14.6 -3 18 C-3.33 18 -3.66 18 -4 18 C-4 12.72 -4 7.44 -4 2 C-3.01 2.33 -2.02 2.66 -1 3 C-0.67 2.01 -0.34 1.02 0 0 Z " fill="#D6D6D6" transform="translate(1020,421)"/>
<path d="M0 0 C1.1171875 1.703125 1.1171875 1.703125 2 4 C1.3203125 6.359375 1.3203125 6.359375 0.125 8.75 C-0.26429688 9.54921875 -0.65359375 10.3484375 -1.0546875 11.171875 C-1.36664063 11.77515625 -1.67859375 12.3784375 -2 13 C-5.78630702 12.24432948 -7.4041044 10.87402727 -10 8 C-7.03 8.495 -7.03 8.495 -4 9 C-3.67 8.01 -3.34 7.02 -3 6 C-2.34 6 -1.68 6 -1 6 C-0.67 4.02 -0.34 2.04 0 0 Z " fill="#111111" transform="translate(451,372)"/>
<path d="M0 0 C0.66 0.33 1.32 0.66 2 1 C1.34 3.97 0.68 6.94 0 10 C-0.99 10 -1.98 10 -3 10 C-4.6875 8 -4.6875 8 -6 6 C-4.98545548 3.4636387 -4.3146444 2.20648539 -2 0.6875 C-1.34 0.460625 -0.68 0.23375 0 0 Z " fill="#1A1A1A" transform="translate(824,722)"/>
<path d="M0 0 C0.68707555 2.49064888 1 4.37886292 1 7 C1.66 7.33 2.32 7.66 3 8 C3.33 8.66 3.66 9.32 4 10 C3.0625 12.625 3.0625 12.625 2 15 C1.34 14.34 0.68 13.68 0 13 C-2.475 14.485 -2.475 14.485 -5 16 C-3.41078475 10.63904723 -1.81027062 5.29156027 0 0 Z " fill="#CECECE" transform="translate(479,301)"/>
<path d="M0 0 C1.46726798 3.81489674 0.43336419 6.29011622 -1 10 C-3.33936818 7.87330165 -4.80653848 5.93775144 -6 3 C-6 2.01 -6 1.02 -6 0 C-3.50907189 -1.24546405 -2.58919267 -0.7767578 0 0 Z " fill="#191919" transform="translate(764,739)"/>
<path d="M0 0 C0 0.66 0 1.32 0 2 C-0.99 2.495 -0.99 2.495 -2 3 C-1.79375 3.61875 -1.5875 4.2375 -1.375 4.875 C-1.25125 5.57625 -1.1275 6.2775 -1 7 C-1.66 7.66 -2.32 8.32 -3 9 C-4.65 6.03 -6.3 3.06 -8 0 C-8.66 0 -9.32 0 -10 0 C-10 -0.66 -10 -1.32 -10 -2 C-5.82412255 -3.39195915 -3.86525224 -1.82323219 0 0 Z " fill="#E7E7E7" transform="translate(1016,252)"/>
<path d="M0 0 C0.33 0.66 0.66 1.32 1 2 C-0.26947188 5.65728804 -2.47024461 7.44817285 -5.5 9.75 C-6.2940625 10.36359375 -7.088125 10.9771875 -7.90625 11.609375 C-10 13 -10 13 -12 13 C-12.33 14.32 -12.66 15.64 -13 17 C-14.32 16.34 -15.64 15.68 -17 15 C-16.41992188 14.55269531 -15.83984375 14.10539063 -15.2421875 13.64453125 C-6.83675654 7.58684326 -6.83675654 7.58684326 0 0 Z " fill="#D1D1D1" transform="translate(1029,601)"/>
<path d="M0 0 C2.6855594 2.6855594 3.06049974 5.37621328 4 9 C1.525 10.485 1.525 10.485 -1 12 C-2.32087692 9.82443801 -3.07112439 8.56899513 -2.75 6 C-1.96713323 3.91235527 -1.05252193 1.96470761 0 0 Z " fill="#EAEAEA" transform="translate(1015,372)"/>
<path d="M0 0 C0.33 0 0.66 0 1 0 C1.375 2.75 1.375 2.75 1 6 C-1.5784677 8.07398489 -4.05442709 9.52721354 -7 11 C-7.33 10.01 -7.66 9.02 -8 8 C-7.67 7.34 -7.34 6.68 -7 6 C-7.66 5.67 -8.32 5.34 -9 5 C-4.25 4 -4.25 4 -2 4 C-2 3.34 -2 2.68 -2 2 C-1.34 2 -0.68 2 0 2 C0 1.34 0 0.68 0 0 Z " fill="#E7E7E7" transform="translate(498,504)"/>
<path d="M0 0 C0.66 0.33 1.32 0.66 2 1 C-0.31 3.31 -2.62 5.62 -5 8 C-4.34 8.33 -3.68 8.66 -3 9 C-3 9.66 -3 10.32 -3 11 C-4.32 11 -5.64 11 -7 11 C-7.66 12.32 -8.32 13.64 -9 15 C-9.66 14.67 -10.32 14.34 -11 14 C-9.61085525 9.70281047 -7.61968015 7.29312243 -4.375 4.1875 C-3.55773438 3.39730469 -2.74046875 2.60710937 -1.8984375 1.79296875 C-0.95871094 0.90544922 -0.95871094 0.90544922 0 0 Z " fill="#2B2B2B" transform="translate(1038,466)"/>
<path d="M0 0 C3 0 3 0 6 2 C6.75 4 6.75 4 7 6 C6.67 6.66 6.34 7.32 6 8 C4.68 8 3.36 8 2 8 C1.01 5.69 0.02 3.38 -1 1 C-0.67 0.67 -0.34 0.34 0 0 Z " fill="#F1F1F1" transform="translate(467,545)"/>
<path d="M0 0 C0.144375 0.598125 0.28875 1.19625 0.4375 1.8125 C1.0860893 4.33479172 1.83376839 6.66753678 3 9 C0 12 -3 15 -6 18 C-4 12 -2 6 0 0 Z " fill="#CECECE" transform="translate(1045,352)"/>
<path d="M0 0 C1 3 1 3 1 5 C0.278125 5.4125 -0.44375 5.825 -1.1875 6.25 C-4.66229071 8.41209199 -6.49655171 10.78128078 -9 14 C-9.66 13.67 -10.32 13.34 -11 13 C-7.61227103 8.30840284 -4.21814817 3.9700218 0 0 Z " fill="#2F2F2F" transform="translate(1040,392)"/>
<path d="M0 0 C2.475 0.99 2.475 0.99 5 2 C5 2.99 5 3.98 5 5 C4.01 5.495 4.01 5.495 3 6 C3 7.65 3 9.3 3 11 C1 10 1 10 -0.1875 7.75 C-1.08937081 4.69751418 -0.86361585 3.02265546 0 0 Z " fill="#DEDEDE" transform="translate(497,605)"/>
<path d="M0 0 C2 2 2 2 2.265625 4.05859375 C2.26046875 4.84363281 2.2553125 5.62867188 2.25 6.4375 C2.25515625 7.21996094 2.2603125 8.00242187 2.265625 8.80859375 C2 11 2 11 0 14 C-2.53191489 5.06382979 -2.53191489 5.06382979 0 0 Z " fill="#1E1E1E" transform="translate(1014,482)"/>
<path d="M0 0 C0.66 0.33 1.32 0.66 2 1 C1.04270084 2.12588014 0.08412105 3.2506715 -0.875 4.375 C-1.40867187 5.00148438 -1.94234375 5.62796875 -2.4921875 6.2734375 C-5.15188512 9.31899799 -7.21395302 10.60514059 -11 12 C-9.49650623 8.33213607 -7.36271208 6.31089607 -4.375 3.75 C-3.14910156 2.69039063 -3.14910156 2.69039063 -1.8984375 1.609375 C-1.27195312 1.07828125 -0.64546875 0.5471875 0 0 Z " fill="#363636" transform="translate(473,460)"/>
<path d="M0 0 C1.625 1 1.625 1 3 3 C2.94596073 5.93613364 2.34503496 8.38871873 1 11 C-3.00798625 13.17825339 -4.52915767 13.11771058 -9 12 C-6.03 11.34 -3.06 10.68 0 10 C-0.37125 9.278125 -0.7425 8.55625 -1.125 7.8125 C-2.18974141 4.39011689 -1.60339848 3.11771927 0 0 Z " fill="#D1D1D1" transform="translate(999,322)"/>
<path d="M0 0 C2.46800047 1.15173355 4.04783565 2.04783565 6 4 C6.66 3.67 7.32 3.34 8 3 C8 3.66 8 4.32 8 5 C8.66 5.33 9.32 5.66 10 6 C9.34 7.32 8.68 8.64 8 10 C5.03 7.36 2.06 4.72 -1 2 C-0.67 1.34 -0.34 0.68 0 0 Z " fill="#D6D6D6" transform="translate(877,726)"/>
<path d="M0 0 C1.32 0.66 2.64 1.32 4 2 C2.48328036 6.55015893 -1.16891053 8.50057264 -5 11 C-3.55049545 7.2089881 -1.84827434 3.6125362 0 0 Z " fill="#2A2A2A" transform="translate(461,251)"/>
<path d="M0 0 C0.33 0.66 0.66 1.32 1 2 C1.66 2.33 2.32 2.66 3 3 C0.33333333 4.33333333 -2.33333333 5.66666667 -5 7 C-5.33 7.99 -5.66 8.98 -6 10 C-6.66 8.02 -7.32 6.04 -8 4 C-7.01 4 -6.02 4 -5 4 C-4.34 3.01 -3.68 2.02 -3 1 C-3 1.66 -3 2.32 -3 3 C-2.34 3 -1.68 3 -1 3 C-0.67 2.01 -0.34 1.02 0 0 Z " fill="#D3D3D3" transform="translate(551,658)"/>
<path d="M0 0 C0 0.99 0 1.98 0 3 C-0.66 3 -1.32 3 -2 3 C-2.33 3.66 -2.66 4.32 -3 5 C-5.97 5 -8.94 5 -12 5 C-7.98293024 0.98293024 -5.6913658 -0.31618699 0 0 Z " fill="#272727" transform="translate(488,454)"/>
<path d="M0 0 C0.66 0 1.32 0 2 0 C2 0.66 2 1.32 2 2 C0.68 2.33 -0.64 2.66 -2 3 C-1.34 2.01 -0.68 1.02 0 0 Z M-2 4 C-4 7 -4 7 -5.8125 7.625 C-6.534375 7.74875 -7.25625 7.8725 -8 8 C-8.9075 8.185625 -9.815 8.37125 -10.75 8.5625 C-11.4925 8.706875 -12.235 8.85125 -13 9 C-6.83050847 2.38983051 -6.83050847 2.38983051 -2 4 Z " fill="#242424" transform="translate(1057,381)"/>
<path d="M0 0 C2.125 0.9375 2.125 0.9375 4 2 C3.1875 3.9375 3.1875 3.9375 2 6 C1.01 6.33 0.02 6.66 -1 7 C-1.66 6.34 -2.32 5.68 -3 5 C-2.75 2.9375 -2.75 2.9375 -2 1 C-1.34 0.67 -0.68 0.34 0 0 Z " fill="#131313" transform="translate(948,698)"/>
<path d="M0 0 C0.33 0.66 0.66 1.32 1 2 C3.02463255 2.65213292 3.02463255 2.65213292 5 3 C4.01 3.495 4.01 3.495 3 4 C3 4.99 3 5.98 3 7 C1.68 7.33 0.36 7.66 -1 8 C-1.625 5.6875 -1.625 5.6875 -2 3 C-1.34 2.01 -0.68 1.02 0 0 Z " fill="#E2E2E2" transform="translate(938,643)"/>
<path d="M0 0 C4.95 0.99 4.95 0.99 10 2 C6 4 6 4 3.75 3.625 C3.1725 3.41875 2.595 3.2125 2 3 C2 4.98 2 6.96 2 9 C-0.05164237 5.53785351 0 4.40610765 0 0 Z " fill="#303030" transform="translate(400,453)"/>
<path d="M0 0 C0.33 0 0.66 0 1 0 C1 1.65 1 3.3 1 5 C0.01 5.33 -0.98 5.66 -2 6 C-2.73323796 8.01508358 -2.73323796 8.01508358 -3 10 C-4.32 9.67 -5.64 9.34 -7 9 C-6.02180976 7.68677212 -5.0424189 6.37443848 -4.0625 5.0625 C-3.51722656 4.33160156 -2.97195313 3.60070312 -2.41015625 2.84765625 C-1 1 -1 1 0 0 Z " fill="#292929" transform="translate(583,736)"/>
<path d="M0 0 C1.32 0.66 2.64 1.32 4 2 C1.36 4.31 -1.28 6.62 -4 9 C-4.66 8.01 -5.32 7.02 -6 6 C-4.02 4.02 -2.04 2.04 0 0 Z " fill="#DFDFDF" transform="translate(831,675)"/>
<path d="M0 0 C5.875 4.625 5.875 4.625 7 8 C6.01 7.67 5.02 7.34 4 7 C3.67 7.66 3.34 8.32 3 9 C2.34 9 1.68 9 1 9 C1.33 7.35 1.66 5.7 2 4 C1.01 4 0.02 4 -1 4 C-1.66 3.34 -2.32 2.68 -3 2 C-2.01 2 -1.02 2 0 2 C0 1.34 0 0.68 0 0 Z " fill="#1F1F1F" transform="translate(587,646)"/>
<path d="M0 0 C0.66 0.33 1.32 0.66 2 1 C-0.75 4.875 -0.75 4.875 -3 6 C-3.33 6.99 -3.66 7.98 -4 9 C-5.65 9 -7.3 9 -9 9 C-6.31941902 5.42589203 -3.57410797 2.68058098 0 0 Z " fill="#242424" transform="translate(1040,310)"/>
<path d="M0 0 C0.33 0.66 0.66 1.32 1 2 C-1.03014771 5.84659566 -3.56941824 9.39603395 -6 13 C-6.66 12.67 -7.32 12.34 -8 12 C-6.49087042 7.01987239 -3.44338151 3.75740058 0 0 Z " fill="#D8D8D8" transform="translate(482,431)"/>
<path d="M0 0 C1.32 0.66 2.64 1.32 4 2 C4 5.3 4 8.6 4 12 C3.67 12 3.34 12 3 12 C3 9.69 3 7.38 3 5 C1.35 5 -0.3 5 -2 5 C-2.33 4.01 -2.66 3.02 -3 2 C-2.01 2 -1.02 2 0 2 C0 1.34 0 0.68 0 0 Z " fill="#C8C8C8" transform="translate(490,392)"/>
<path d="M0 0 C-0.875 6.75 -0.875 6.75 -2 9 C-2.66 9 -3.32 9 -4 9 C-4.33 7.02 -4.66 5.04 -5 3 C-1.125 0 -1.125 0 0 0 Z " fill="#F2F2F2" transform="translate(480,313)"/>
<path d="M0 0 C0 1.65 0 3.3 0 5 C-0.66 4.34 -1.32 3.68 -2 3 C-2.66 3.66 -3.32 4.32 -4 5 C-4 4.01 -4 3.02 -4 2 C-8.455 2.495 -8.455 2.495 -13 3 C-8.54370064 0.02913376 -5.32064558 -0.12092376 0 0 Z " fill="#4C4C4C" transform="translate(807,688)"/>
<path d="M0 0 C2.475 0.99 2.475 0.99 5 2 C4.34 3.65 3.68 5.3 3 7 C1.02 6.34 -0.96 5.68 -3 5 C-2.01 3.35 -1.02 1.7 0 0 Z " fill="#DFDFDF" transform="translate(580,686)"/>
<path d="M0 0 C0.66 0.99 1.32 1.98 2 3 C0.9171875 3.5878125 0.9171875 3.5878125 -0.1875 4.1875 C-3.227326 6.14649898 -5.52127727 8.37963597 -8 11 C-8.66 10.67 -9.32 10.34 -10 10 C-6.92118304 6.12948725 -3.99926986 2.97088618 0 0 Z " fill="#2D2D2D" transform="translate(937,652)"/>
<path d="M0 0 C2.31 0.33 4.62 0.66 7 1 C6.67 1.99 6.34 2.98 6 4 C3.5625 5.125 3.5625 5.125 1 6 C0.01 6.495 0.01 6.495 -1 7 C-0.67 4.69 -0.34 2.38 0 0 Z " fill="#E9E9E9" transform="translate(1001,326)"/>
<path d="M0 0 C0.33 1.32 0.66 2.64 1 4 C2.65 3.67 4.3 3.34 6 3 C6.33 4.98 6.66 6.96 7 9 C5.35 8.67 3.7 8.34 2 8 C2 7.34 2 6.68 2 6 C1.34 5.67 0.68 5.34 0 5 C0 3.35 0 1.7 0 0 Z " fill="#D6D6D6" transform="translate(757,729)"/>
<path d="M0 0 C3.26460973 1.80412643 4.88929795 2.83394693 7 6 C4.57333205 7.21333397 2.66500278 7 0 7 C0 4.69 0 2.38 0 0 Z " fill="#151515" transform="translate(876,728)"/>
<path d="M0 0 C-0.66 0 -1.32 0 -2 0 C-2 2.31 -2 4.62 -2 7 C-2.33 5.68 -2.66 4.36 -3 3 C-5.64 3.33 -8.28 3.66 -11 4 C-4.45384615 -1.48461538 -4.45384615 -1.48461538 0 0 Z " fill="#E5E5E5" transform="translate(584,203)"/>
<path d="M0 0 C0.33 0.66 0.66 1.32 1 2 C1.66 2.33 2.32 2.66 3 3 C3 3.99 3 4.98 3 6 C3.33 6.99 3.66 7.98 4 9 C2.68 9.33 1.36 9.66 0 10 C-1.125 2.25 -1.125 2.25 0 0 Z " fill="#EDEDED" transform="translate(828,766)"/>
<path d="M0 0 C0.33 0.66 0.66 1.32 1 2 C3.52733235 2.65555119 3.52733235 2.65555119 6 3 C3.66785852 4.20628008 1.50357861 5.1654738 -1 6 C-1.99 5.34 -2.98 4.68 -4 4 C-4 3.01 -4 2.02 -4 1 C-2 0 -2 0 0 0 Z " fill="#DADADA" transform="translate(890,686)"/>
<path d="M0 0 C0.33 0 0.66 0 1 0 C1 2.31 1 4.62 1 7 C-3.83256305 6.58578031 -5.82679218 4.53586014 -9 1 C-2.125 2.875 -2.125 2.875 -1 4 C-0.67 2.68 -0.34 1.36 0 0 Z " fill="#474747" transform="translate(990,564)"/>
<path d="M0 0 C-0.66 1.98 -1.32 3.96 -2 6 C-4.31 5.67 -6.62 5.34 -9 5 C-6.45523312 2.20075644 -3.92372883 0 0 0 Z " fill="#262626" transform="translate(1027,528)"/>
<path d="M0 0 C0.66 0.33 1.32 0.66 2 1 C0.53563715 5.63714903 0.53563715 5.63714903 -1.9375 7.3125 C-4 8 -4 8 -7 8 C-4.69 5.36 -2.38 2.72 0 0 Z " fill="#2D2D2D" transform="translate(516,233)"/>
<path d="M0 0 C0.66 0.33 1.32 0.66 2 1 C1.071875 1.8971875 1.071875 1.8971875 0.125 2.8125 C-2.13676954 5.00811144 -2.13676954 5.00811144 -4 8 C-5.32 7.67 -6.64 7.34 -8 7 C-5.36 4.69 -2.72 2.38 0 0 Z " fill="#323232" transform="translate(664,744)"/>
<path d="M0 0 C0.66 0.33 1.32 0.66 2 1 C1.360625 1.45375 0.72125 1.9075 0.0625 2.375 C-2.09702406 3.83921726 -2.09702406 3.83921726 -3 6 C-3.66 5.67 -4.32 5.34 -5 5 C-5 5.66 -5 6.32 -5 7 C-6.32 6.67 -7.64 6.34 -9 6 C-3.30379747 1.25316456 -3.30379747 1.25316456 0 0 Z " fill="#C7C7C7" transform="translate(825,715)"/>
<path d="M0 0 C-0.185625 0.61875 -0.37125 1.2375 -0.5625 1.875 C-1.23686176 4.04160178 -1.23686176 4.04160178 0 6 C-3.36591866 4.55746343 -5.51047079 2.66735273 -8 0 C-2.25 -1.125 -2.25 -1.125 0 0 Z " fill="#262626" transform="translate(483,657)"/>
<path d="M0 0 C1.14926266 0.95421808 2.29430541 1.91352045 3.4375 2.875 C4.07558594 3.40867187 4.71367187 3.94234375 5.37109375 4.4921875 C7 6 7 6 8 8 C6.68 8.33 5.36 8.66 4 9 C2 6 2 6 2 3 C1.01 2.67 0.02 2.34 -1 2 C-0.67 1.34 -0.34 0.68 0 0 Z " fill="#D3D3D3" transform="translate(443,604)"/>
<path d="M0 0 C-0.33 2.97 -0.66 5.94 -1 9 C-1.33 9 -1.66 9 -2 9 C-2 7.02 -2 5.04 -2 3 C-4.64 3 -7.28 3 -10 3 C-9.67 2.34 -9.34 1.68 -9 1 C-5.85554549 0.15014743 -3.29227921 0 0 0 Z " fill="#505050" transform="translate(1070,453)"/>
<path d="M0 0 C0.99 0.33 1.98 0.66 3 1 C2.67 1.99 2.34 2.98 2 4 C1.34 4 0.68 4 0 4 C-0.33 5.98 -0.66 7.96 -1 10 C-1.33 10 -1.66 10 -2 10 C-2.33 7.36 -2.66 4.72 -3 2 C-2.01 1.34 -1.02 0.68 0 0 Z " fill="#DCDCDC" transform="translate(428,306)"/>
<path d="M0 0 C0.99 0.66 1.98 1.32 3 2 C2.67 2.66 2.34 3.32 2 4 C1.01 4 0.02 4 -1 4 C-3.20142332 6.4390706 -3.20142332 6.4390706 -5 9 C-5.66 8.67 -6.32 8.34 -7 8 C-4.69 5.36 -2.38 2.72 0 0 Z " fill="#353535" transform="translate(1007,251)"/>
<path d="M0 0 C0.99 0.99 1.98 1.98 3 3 C1.68 4.65 0.36 6.3 -1 8 C-2 7 -2 7 -2.1875 4.5625 C-2 2 -2 2 0 0 Z " fill="#EEEEEE" transform="translate(643,762)"/>
<path d="M0 0 C0.33 1.32 0.66 2.64 1 4 C1.66 4 2.32 4 3 4 C3 4.99 3 5.98 3 7 C-0.36720387 5.60667426 -1.9859524 4.0210714 -4 1 C-2 0 -2 0 0 0 Z " fill="#CDCDCD" transform="translate(812,745)"/>
<path d="M0 0 C2.28062828 3.42094242 2.21925007 4.68187222 2.125 8.6875 C2.10695313 9.68136719 2.08890625 10.67523437 2.0703125 11.69921875 C2.03550781 12.83810547 2.03550781 12.83810547 2 14 C0.35 13.67 -1.3 13.34 -3 13 C-2.01 12.67 -1.02 12.34 0 12 C0 8.04 0 4.08 0 0 Z " fill="#424242" transform="translate(710,719)"/>
<path d="M0 0 C0.99 0.33 1.98 0.66 3 1 C3.33 3.31 3.66 5.62 4 8 C3.67 7.34 3.34 6.68 3 6 C2.34 5.67 1.68 5.34 1 5 C-1 4 -1 4 -2 2 C-1.34 2 -0.68 2 0 2 C0 1.34 0 0.68 0 0 Z " fill="#E4E4E4" transform="translate(649,720)"/>
<path d="M0 0 C-0.99 0.33 -1.98 0.66 -3 1 C-2.67 1.66 -2.34 2.32 -2 3 C-5.3 3.33 -8.6 3.66 -12 4 C-8.26195079 0.26195079 -5.24318757 -1.94192132 0 0 Z " fill="#313131" transform="translate(901,689)"/>
<path d="M0 0 C1.32 1.32 2.64 2.64 4 4 C3.01 4.33 2.02 4.66 1 5 C0.01 6.485 0.01 6.485 -1 8 C-2.32 6.35 -3.64 4.7 -5 3 C-4.360625 2.87625 -3.72125 2.7525 -3.0625 2.625 C-2.0415625 2.315625 -2.0415625 2.315625 -1 2 C-0.67 1.34 -0.34 0.68 0 0 Z " fill="#D4D4D4" transform="translate(541,652)"/>
<path d="M0 0 C0.66 0.33 1.32 0.66 2 1 C0.8553125 1.6496875 0.8553125 1.6496875 -0.3125 2.3125 C-2.58093768 3.73686785 -4.2199723 5.03260097 -6 7 C-6.66 6.67 -7.32 6.34 -8 6 C-7 3 -7 3 -3.5625 1.25 C-2.386875 0.8375 -1.21125 0.425 0 0 Z " fill="#353535" transform="translate(477,647)"/>
<path d="M0 0 C1.74627478 2.61941217 2.38722388 4.03824877 3 7 C1.3125 8.625 1.3125 8.625 -1 10 C-3.75 9.1875 -3.75 9.1875 -6 8 C-5.38125 7.896875 -4.7625 7.79375 -4.125 7.6875 C-1.63473516 7.12474627 -1.63473516 7.12474627 0 4 C0 2.68 0 1.36 0 0 Z " fill="#CCCCCC" transform="translate(530,640)"/>
<path d="M0 0 C1.04449911 3.13349732 0.93423645 3.98968256 0 7 C-0.66 7 -1.32 7 -2 7 C-2.33 7.99 -2.66 8.98 -3 10 C-3.66 10 -4.32 10 -5 10 C-3.84414715 6.08788267 -2.64465038 3.1254959 0 0 Z " fill="#2E2E2E" transform="translate(504,557)"/>
<path d="M0 0 C3.33557632 2.9905167 5.15083921 5.93184627 7 10 C4 10 4 10 2.375 8.9375 C0.37933826 6.12543118 0.31861496 3.37731859 0 0 Z " fill="#313131" transform="translate(984,520)"/>
<path d="M0 0 C0.99 1.32 1.98 2.64 3 4 C0.69 5.65 -1.62 7.3 -4 9 C-2.94124926 5.59687262 -1.99097846 2.98646769 0 0 Z " fill="#2C2C2C" transform="translate(459,475)"/>
<path d="M0 0 C0.5775 0.165 1.155 0.33 1.75 0.5 C4.26664369 1.14462031 4.26664369 1.14462031 8 1 C6.6875 3 6.6875 3 5 5 C4.01 5 3.02 5 2 5 C1.34 3.35 0.68 1.7 0 0 Z " fill="#2C2C2C" transform="translate(1019,380)"/>
<path d="M0 0 C1.3921875 0.3403125 1.3921875 0.3403125 2.8125 0.6875 C2.4825 2.6675 2.1525 4.6475 1.8125 6.6875 C1.1525 6.3575 0.4925 6.0275 -0.1875 5.6875 C-0.1875 5.0275 -0.1875 4.3675 -0.1875 3.6875 C-3.1575 3.1925 -3.1575 3.1925 -6.1875 2.6875 C-4.14987265 -0.14253799 -3.59070275 -0.35202968 0 0 Z " fill="#DCDCDC" transform="translate(530.1875,300.3125)"/>
<path d="M0 0 C0.66 0.33 1.32 0.66 2 1 C2 1.66 2 2.32 2 3 C1.195625 3.12375 0.39125 3.2475 -0.4375 3.375 C-1.7059375 3.684375 -1.7059375 3.684375 -3 4 C-3.33 4.66 -3.66 5.32 -4 6 C-5.32 5.67 -6.64 5.34 -8 5 C-6.71475739 4.13619741 -5.42157581 3.28419631 -4.125 2.4375 C-3.04605469 1.72400391 -3.04605469 1.72400391 -1.9453125 0.99609375 C-1.30335938 0.66738281 -0.66140625 0.33867187 0 0 Z " fill="#2C2C2C" transform="translate(536,219)"/>
<path d="M0 0 C0.66 0.33 1.32 0.66 2 1 C1.34 2.98 0.68 4.96 0 7 C-0.45375 6.525625 -0.9075 6.05125 -1.375 5.5625 C-2.93258204 3.90972192 -2.93258204 3.90972192 -5 3 C-2.625 1.4375 -2.625 1.4375 0 0 Z " fill="#282828" transform="translate(824,722)"/>
<path d="M0 0 C2.475 0.99 2.475 0.99 5 2 C4.67 2.99 4.34 3.98 4 5 C2.68 5 1.36 5 0 5 C-0.5625 3.0625 -0.5625 3.0625 -1 1 C-0.67 0.67 -0.34 0.34 0 0 Z " fill="#141414" transform="translate(647,724)"/>
<path d="M0 0 C0.66 0.99 1.32 1.98 2 3 C1.67 3.66 1.34 4.32 1 5 C0.34 5 -0.32 5 -1 5 C-1.33 5.66 -1.66 6.32 -2 7 C-3.32 7.33 -4.64 7.66 -6 8 C-4.02 5.36 -2.04 2.72 0 0 Z " fill="#DFDFDF" transform="translate(845,705)"/>
<path d="M0 0 C0.99 0 1.98 0 3 0 C3.66 1.98 4.32 3.96 5 6 C4.01 6.495 4.01 6.495 3 7 C2.34 6.67 1.68 6.34 1 6 C1 5.34 1 4.68 1 4 C0.34 3.67 -0.32 3.34 -1 3 C-0.34 3 0.32 3 1 3 C0.67 2.01 0.34 1.02 0 0 Z " fill="#F7F7F7" transform="translate(587,691)"/>
<path d="M0 0 C1.32 0.66 2.64 1.32 4 2 C3.01 3.32 2.02 4.64 1 6 C0.01 5.67 -0.98 5.34 -2 5 C-1.34 3.35 -0.68 1.7 0 0 Z " fill="#131313" transform="translate(989,656)"/>
<path d="M0 0 C0.99 0.33 1.98 0.66 3 1 C3.33 2.65 3.66 4.3 4 6 C2.33333333 6 0.66666667 6 -1 6 C-1.625 4.125 -1.625 4.125 -2 2 C-1.34 1.34 -0.68 0.68 0 0 Z " fill="#353535" transform="translate(893,636)"/>
<path d="M0 0 C0 3 0 3 -1.9375 5.0625 C-2.618125 5.701875 -3.29875 6.34125 -4 7 C-4.33 7.66 -4.66 8.32 -5 9 C-5.66 9 -6.32 9 -7 9 C-7 8.34 -7 7.68 -7 7 C-7.66 6.67 -8.32 6.34 -9 6 C-8.071875 5.566875 -7.14375 5.13375 -6.1875 4.6875 C-3.52815927 3.27961373 -1.91894095 2.23876444 0 0 Z " fill="#D6D6D6" transform="translate(491,563)"/>
<path d="M0 0 C0.99 0.495 0.99 0.495 2 1 C2.73075648 3.3140622 3.40138258 5.64828869 4 8 C3.34 8 2.68 8 2 8 C1.67 8.66 1.34 9.32 1 10 C0.37542727 6.56484998 0 3.50935186 0 0 Z " fill="#1F1F1F" transform="translate(443,480)"/>
<path d="M0 0 C1.65 0 3.3 0 5 0 C4.67 1.65 4.34 3.3 4 5 C2.68 4.34 1.36 3.68 0 3 C0 2.01 0 1.02 0 0 Z " fill="#F2F2F2" transform="translate(994,322)"/>
<path d="M0 0 C-0.66 1.32 -1.32 2.64 -2 4 C-2 3.34 -2 2.68 -2 2 C-3.98 3.32 -5.96 4.64 -8 6 C-7.67 4.35 -7.34 2.7 -7 1 C-2.25 0 -2.25 0 0 0 Z " fill="#D8D8D8" transform="translate(1044,308)"/>
<path d="M0 0 C0.33 0.99 0.66 1.98 1 3 C2.32 3 3.64 3 5 3 C5.33 2.34 5.66 1.68 6 1 C6.33 1.99 6.66 2.98 7 4 C7.66 4.33 8.32 4.66 9 5 C6.36 4.67 3.72 4.34 1 4 C0.67 5.32 0.34 6.64 0 8 C0 5.36 0 2.72 0 0 Z " fill="#DDDDDD" transform="translate(888,202)"/>
<path d="M0 0 C0.66 0.33 1.32 0.66 2 1 C0.02 3.31 -1.96 5.62 -4 8 C-5.32 7.67 -6.64 7.34 -8 7 C-5.36 4.69 -2.72 2.38 0 0 Z " fill="#363636" transform="translate(592,728)"/>
<path d="M0 0 C0.33 0.66 0.66 1.32 1 2 C0.01 2.61875 -0.98 3.2375 -2 3.875 C-2.99 4.57625 -3.98 5.2775 -5 6 C-5 6.66 -5 7.32 -5 8 C-5.66 8 -6.32 8 -7 8 C-7 7.34 -7 6.68 -7 6 C-7.66 5.67 -8.32 5.34 -9 5 C-8.071875 4.54625 -7.14375 4.0925 -6.1875 3.625 C-2.96078611 2.0578367 -2.96078611 2.0578367 0 0 Z " fill="#CECECE" transform="translate(985,664)"/>
<path d="M0 0 C3 0 3 0 5 1 C4.34 2.65 3.68 4.3 3 6 C2.34 6 1.68 6 1 6 C0.34 4.35 -0.32 2.7 -1 1 C-0.67 0.67 -0.34 0.34 0 0 Z " fill="#0F0F0F" transform="translate(547,655)"/>
<path d="M0 0 C3 0 3 0 4.6875 1.125 C6.53521368 3.76459098 6.20946395 5.85804073 6 9 C3.59927045 6.11912454 1.52708963 3.43595166 0 0 Z " fill="#E7E7E7" transform="translate(438,401)"/>
<path d="M0 0 C0.33 0.66 0.66 1.32 1 2 C-1.16798732 7.4770206 -1.16798732 7.4770206 -4.1875 9.375 C-4.785625 9.58125 -5.38375 9.7875 -6 10 C-4.6302836 6.00499382 -2.74277578 3.19990508 0 0 Z " fill="#2D2D2D" transform="translate(477,322)"/>
<path d="M0 0 C1.65 1.65 3.3 3.3 5 5 C4.67 5.66 4.34 6.32 4 7 C2.68 6.67 1.36 6.34 0 6 C0.33 5.01 0.66 4.02 1 3 C0.34 2.67 -0.32 2.34 -1 2 C-0.67 1.34 -0.34 0.68 0 0 Z " fill="#DEDEDE" transform="translate(457,321)"/>
<path d="M0 0 C-2.8125 2.0625 -2.8125 2.0625 -6 4 C-6.99 3.67 -7.98 3.34 -9 3 C-9 2.34 -9 1.68 -9 1 C-5.57367167 -0.61798838 -3.61944899 -1.34053666 0 0 Z " fill="#2D2D2D" transform="translate(948,303)"/>
<path d="M0 0 C2.64 0.33 5.28 0.66 8 1 C8 1.33 8 1.66 8 2 C6.35 2 4.7 2 3 2 C2.67 2.66 2.34 3.32 2 4 C1.01 3.67 0.02 3.34 -1 3 C-0.67 2.01 -0.34 1.02 0 0 Z " fill="#E6E6E6" transform="translate(789,771)"/>
<path d="M0 0 C4.67692308 1.47692308 4.67692308 1.47692308 6.3125 4.125 C6.539375 4.74375 6.76625 5.3625 7 6 C4.0625 5.25 4.0625 5.25 1 4 C0.125 1.875 0.125 1.875 0 0 Z " fill="#2A2A2A" transform="translate(835,741)"/>
<path d="M0 0 C0.556875 0.28875 1.11375 0.5775 1.6875 0.875 C4.08494645 2.0413253 6.51596939 3.0339881 9 4 C8.67 4.99 8.34 5.98 8 7 C6.66382648 6.02471263 5.3311249 5.04466681 4 4.0625 C3.2575 3.51722656 2.515 2.97195313 1.75 2.41015625 C1.1725 1.94480469 0.595 1.47945312 0 1 C0 0.67 0 0.34 0 0 Z " fill="#C7C7C7" transform="translate(696,700)"/>
<path d="M0 0 C0.33 0.66 0.66 1.32 1 2 C-2.47307692 7.82980769 -2.47307692 7.82980769 -5.140625 8.69140625 C-5.75421875 8.79324219 -6.3678125 8.89507813 -7 9 C-6.02180976 7.68677212 -5.0424189 6.37443848 -4.0625 5.0625 C-3.51722656 4.33160156 -2.97195313 3.60070312 -2.41015625 2.84765625 C-1 1 -1 1 0 0 Z " fill="#D9D9D9" transform="translate(515,608)"/>
<path d="M0 0 C0.99 0.99 1.98 1.98 3 3 C2.01 3.99 1.02 4.98 0 6 C-0.99 5.67 -1.98 5.34 -3 5 C-2.67 4.01 -2.34 3.02 -2 2 C-1.34 2 -0.68 2 0 2 C0 1.34 0 0.68 0 0 Z " fill="#222222" transform="translate(508,611)"/>
<path d="M0 0 C2.2477975 2.05233685 3.0022242 3.00667261 4 6 C3.34 6.66 2.68 7.32 2 8 C0.4375 6.25 0.4375 6.25 -1 4 C-0.6875 1.75 -0.6875 1.75 0 0 Z " fill="#1D1D1D" transform="translate(546,607)"/>
<path d="M0 0 C1 2 1 2 0.375 3.9375 C-1.35198322 6.52797483 -3.2734275 7.56496184 -6 9 C-6 6 -6 6 -3.5625 3.375 C-2.716875 2.59125 -1.87125 1.8075 -1 1 C-0.67 0.67 -0.34 0.34 0 0 Z " fill="#E4E4E4" transform="translate(1029,601)"/>
<path d="M0 0 C1.7074998 1.28062485 3.37373596 2.61767557 5 4 C5 4.66 5 5.32 5 6 C3.35 6.66 1.7 7.32 0 8 C0 5.36 0 2.72 0 0 Z " fill="#1A1A1A" transform="translate(489,601)"/>
<path d="M0 0 C0.66 1.32 1.32 2.64 2 4 C-1.465 5.485 -1.465 5.485 -5 7 C-3.70700306 4.11562221 -2.34058637 2.12780579 0 0 Z " fill="#313131" transform="translate(929,600)"/>
<path d="M0 0 C2.1875 1.4375 2.1875 1.4375 4 3 C3.67 3.66 3.34 4.32 3 5 C2.01 5 1.02 5 0 5 C-1.6875 3 -1.6875 3 -3 1 C-2.01 0.67 -1.02 0.34 0 0 Z " fill="#222222" transform="translate(437,472)"/>
<path d="M0 0 C2 4 2 4 2 7 C-0.5 9.1875 -0.5 9.1875 -3 11 C-2.01 7.37 -1.02 3.74 0 0 Z " fill="#2A2A2A" transform="translate(460,371)"/>
<path d="M0 0 C1.65 0.33 3.3 0.66 5 1 C4.34 2.32 3.68 3.64 3 5 C3.99 5.33 4.98 5.66 6 6 C4.68 6.33 3.36 6.66 2 7 C2 5.35 2 3.7 2 2 C1.01 2.33 0.02 2.66 -1 3 C-0.67 2.01 -0.34 1.02 0 0 Z " fill="#D2D2D2" transform="translate(468,327)"/>
<path d="M0 0 C2.97 0.495 2.97 0.495 6 1 C5.01 1.495 5.01 1.495 4 2 C4.33 2.99 4.66 3.98 5 5 C4.01 5.33 3.02 5.66 2 6 C1.34 4.02 0.68 2.04 0 0 Z " fill="#D5D5D5" transform="translate(970,256)"/>
<path d="M0 0 C0.5534764 2.07553648 1 3.84365964 1 6 C-1.5 7.625 -1.5 7.625 -4 9 C-2.94124926 5.59687262 -1.99097846 2.98646769 0 0 Z " fill="#373737" transform="translate(764,710)"/>
<path d="M0 0 C3.465 1.98 3.465 1.98 7 4 C5 4.66666667 3 5.33333333 1 6 C0.4465236 3.92446352 0 2.15634036 0 0 Z " fill="#1C1C1C" transform="translate(631,674)"/>
<path d="M0 0 C0.66 0.33 1.32 0.66 2 1 C2 1.66 2 2.32 2 3 C1.34 3 0.68 3 0 3 C0.33 4.65 0.66 6.3 1 8 C-0.32 8 -1.64 8 -3 8 C-1.125 2.25 -1.125 2.25 0 0 Z " fill="#C9C9C9" transform="translate(555,650)"/>
<path d="M0 0 C-0.33 1.65 -0.66 3.3 -1 5 C-2.32 5.33 -3.64 5.66 -5 6 C-5.33 5.01 -5.66 4.02 -6 3 C-3.375 0 -3.375 0 0 0 Z " fill="#0F0F0F" transform="translate(964,608)"/>
<path d="M0 0 C0.99 0.66 1.98 1.32 3 2 C1.35 3.65 -0.3 5.3 -2 7 C-2 5.35 -2 3.7 -2 2 C-1.34 2 -0.68 2 0 2 C0 1.34 0 0.68 0 0 Z " fill="#282828" transform="translate(1026,600)"/>
<path d="M0 0 C0.33 0 0.66 0 1 0 C2.23076923 6.4 2.23076923 6.4 1.0625 9.4375 C0.711875 9.953125 0.36125 10.46875 0 11 C-1.26026798 8.47946405 -0.91874445 7.1457902 -0.5625 4.375 C-0.46066406 3.55773437 -0.35882813 2.74046875 -0.25390625 1.8984375 C-0.17011719 1.27195312 -0.08632813 0.64546875 0 0 Z " fill="#3F3F3F" transform="translate(474,541)"/>
<path d="M0 0 C1.32 0 2.64 0 4 0 C4.66 1.65 5.32 3.3 6 5 C4.02 4.34 2.04 3.68 0 3 C0 2.01 0 1.02 0 0 Z " fill="#202020" transform="translate(430,505)"/>
<path d="M0 0 C0.66 1.32 1.32 2.64 2 4 C1.34 4 0.68 4 0 4 C-0.33 5.32 -0.66 6.64 -1 8 C-1.66 7.67 -2.32 7.34 -3 7 C-1.125 1.125 -1.125 1.125 0 0 Z " fill="#323232" transform="translate(1026,480)"/>
<path d="M0 0 C2.9375 0.375 2.9375 0.375 6 1 C6.33 1.66 6.66 2.32 7 3 C3.98968256 3.93423645 3.13349732 4.04449911 0 3 C0 2.01 0 1.02 0 0 Z " fill="#262626" transform="translate(417,459)"/>
<path d="M0 0 C0.66 0.33 1.32 0.66 2 1 C-2.75 4.875 -2.75 4.875 -5 6 C-5 5.34 -5 4.68 -5 4 C-5.66 3.67 -6.32 3.34 -7 3 C-4.69631264 1.93347808 -2.35981813 0.93578995 0 0 Z " fill="#343434" transform="translate(481,399)"/>
<path d="M0 0 C1.32 0.33 2.64 0.66 4 1 C4.33 2.32 4.66 3.64 5 5 C4.01 5 3.02 5 2 5 C1.34 4.34 0.68 3.68 0 3 C0 2.01 0 1.02 0 0 Z " fill="#EFEFEF" transform="translate(432,392)"/>
<path d="M0 0 C2.97 0.495 2.97 0.495 6 1 C6 1.99 6 2.98 6 4 C6.66 4.33 7.32 4.66 8 5 C4.20411134 4.45773019 2.52788007 2.79872437 0 0 Z " fill="#323232" transform="translate(441,380)"/>
<path d="M0 0 C0.99 0.66 1.98 1.32 3 2 C2.34 3.65 1.68 5.3 1 7 C0.01 5.68 -0.98 4.36 -2 3 C-1 1 -1 1 0 0 Z " fill="#ECECEC" transform="translate(1019,327)"/>
<path d="M0 0 C0.721875 0.185625 1.44375 0.37125 2.1875 0.5625 C5.12826973 1.01995307 7.14103058 0.73516357 10 0 C8.515 1.98 8.515 1.98 7 4 C4.97954558 3.39816251 2.97888961 2.72693904 1 2 C0.67 1.34 0.34 0.68 0 0 Z " fill="#262626" transform="translate(774,762)"/>
<path d="M0 0 C1 3 1 3 0.0625 5.1875 C-0.4634375 6.0846875 -0.4634375 6.0846875 -1 7 C-1.33 6.34 -1.66 5.68 -2 5 C-2.66 4.67 -3.32 4.34 -4 4 C-2.68 2.68 -1.36 1.36 0 0 Z " fill="#D4D4D4" transform="translate(702,756)"/>
<path d="M0 0 C2.475 0.99 2.475 0.99 5 2 C4 4 4 4 2.0625 4.75 C1.381875 4.8325 0.70125 4.915 0 5 C-0.66 4.34 -1.32 3.68 -2 3 C-1.34 2.01 -0.68 1.02 0 0 Z " fill="#ECECEC" transform="translate(523,706)"/>
<path d="M0 0 C0.33 0.66 0.66 1.32 1 2 C-0.91522803 6.03205902 -1.85351878 6.92675939 -6 9 C-4.02 6.03 -2.04 3.06 0 0 Z " fill="#CCCCCC" transform="translate(1038,589)"/>
<path d="M0 0 C2.97 0.33 5.94 0.66 9 1 C9 1.66 9 2.32 9 3 C7.02 3.99 7.02 3.99 5 5 C3.35 3.35 1.7 1.7 0 0 Z " fill="#363636" transform="translate(439,562)"/>
<path d="M0 0 C0.99 0.33 1.98 0.66 3 1 C3 1.66 3 2.32 3 3 C0.625 4.6875 0.625 4.6875 -2 6 C-2.66 5.67 -3.32 5.34 -4 5 C-2.68 3.35 -1.36 1.7 0 0 Z " fill="#353535" transform="translate(509,551)"/>
<path d="M0 0 C0.33 0.99 0.66 1.98 1 3 C0.01 3.99 -0.98 4.98 -2 6 C-3.32 5.34 -4.64 4.68 -6 4 C-4.02 2.68 -2.04 1.36 0 0 Z " fill="#D7D7D7" transform="translate(473,503)"/>
<path d="M0 0 C1 3 1 3 1 5 C0.01 5.66 -0.98 6.32 -2 7 C-2.99 6.67 -3.98 6.34 -5 6 C-3.35 4.02 -1.7 2.04 0 0 Z " fill="#CDCDCD" transform="translate(1051,429)"/>
<path d="M0 0 C2 1 2 1 3 3 C1.35 3.66 -0.3 4.32 -2 5 C-2.33 3.68 -2.66 2.36 -3 1 C-2.01 0.67 -1.02 0.34 0 0 Z " fill="#ECECEC" transform="translate(475,349)"/>
<path d="M0 0 C1.07349791 4.29399165 0.79682816 5.19495213 -1 9 C-1.66 9 -2.32 9 -3 9 C-2.01 6.03 -1.02 3.06 0 0 Z " fill="#BABABA" transform="translate(1018,308)"/>
<path d="M0 0 C2.12508244 3.18762365 2.5020163 5.26512223 3 9 C2.01 9.33 1.02 9.66 0 10 C-1.125 6.25 -1.125 6.25 0 4 C0 2.68 0 1.36 0 0 Z " fill="#D6D6D6" transform="translate(990,302)"/>
<path d="M0 0 C1.32 0.33 2.64 0.66 4 1 C3.67 3.31 3.34 5.62 3 8 C1.58622659 5.36095629 0.62759865 2.92879371 0 0 Z " fill="#E9E9E9" transform="translate(492,264)"/>
</svg>
